<?xml version="1.0" encoding="utf-8"?>
<!-- Generator: Adobe Illustrator 24.0.0, SVG Export Plug-In . SVG Version: 6.00 Build 0)  -->
<svg version="1.1" id="Capa_1" xmlns="http://www.w3.org/2000/svg" xmlns:xlink="http://www.w3.org/1999/xlink" x="0px" y="0px"
	 viewBox="0 0 242.1 231.1" style="enable-background:new 0 0 242.1 231.1;" xml:space="preserve">
<style type="text/css">
	.st0{fill:#FF3131;}
</style>
<title>brain</title>
<g>
	<path class="st0" d="M160.7,65.1c-0.8,0.3-1.7,0.5-2.6,0.5c-2.6,0-4.9-1.5-5.9-3.9c-10.6-24.4-39-35.6-63.4-25.1
		c-3.3,1.3-7-0.3-8.3-3.6c-1.3-3.2,0.2-6.7,3.2-8.2c10.1-4.4,21.3-6,32.2-4.5c0.3-6.1,1.7-12.1,4-17.7h14
		c-3.3,6.4-5.1,13.6-5.3,20.8c0.6,0.2,1.2,0.4,1.8,0.6c15.1,5.9,27.1,17.6,33.5,32.5C165.5,59.9,164,63.7,160.7,65.1
		C160.8,65.1,160.7,65.1,160.7,65.1z"/>
	<path class="st0" d="M217.9,2.7h-13.5c-3,8.3-7.7,15.9-13.9,22.2c-8.8-9.3-20.9-14.6-33.7-14.8c-3.5-0.1-6.4,2.8-6.5,6.3
		c-0.1,3.5,2.8,6.4,6.3,6.5c12.1,0.2,23.2,6.7,29.3,17.1c2.3,5,3.9,10.3,4.7,15.7c0,0.8,0.1,1.5,0.1,2.3c0,0.9,0.2,1.8,0.5,2.6
		c0.1,1.5,0.2,3,0.2,4.6c0.1,23.5-13.5,45-34.7,55c-3-18.6-16.6-33.6-34.8-38.4c-3.5-0.8-6.9,1.4-7.7,4.8c-0.8,3.3,1.2,6.6,4.4,7.6
		c15.1,3.9,25.6,17.4,25.8,33c-0.3,0.9-0.5,1.8-0.4,2.7c0.1,0.9,0.1,1.8,0.1,2.6v0.2c-0.2,1.3-0.4,2.5-0.8,3.8
		c-0.3,1.1-0.3,2.4,0.1,3.5c-4.1,22.4-25.6,37.2-48,33.1c-1.3-0.2-2.7-0.6-4-0.9c-0.6-0.2-1.3-0.3-1.9-0.3
		c-7.5-3.5-12.7-10.6-13.9-18.8c-0.5-3.5-3.8-5.9-7.3-5.4s-5.9,3.8-5.4,7.3l0,0c1.8,12.1,9.3,22.6,20.3,28.1v9.3
		c0.3,12.8-9.9,23.4-22.7,23.6c-12.8,0.3-23.4-9.9-23.6-22.7c0-0.3,0-0.6,0-1v-70.1c12.5,11.1,30.9,12.6,45,3.6
		c12.3-4.8,26.3,1,31.5,13.2c1,2.3,3.3,3.9,5.9,3.9c0.9,0,1.7-0.2,2.5-0.5c3.2-1.4,4.7-5.2,3.3-8.4c-3.9-9.1-11.3-16.3-20.6-20
		c-3-1.2-6.2-2-9.4-2.4c2.9-5.4,4.4-11.5,4.4-17.6V66.9c0-3.5-2.9-6.4-6.4-6.4c-3.5,0-6.4,2.9-6.4,6.4l0,0V94
		c0,8.2-4,15.8-10.7,20.5H76c-0.6,0.3-1.2,0.6-1.7,1.1c-11.9,6.8-27.1,2.7-34-9.2C38.1,102.6,37,98.4,37,94V2.7H24.2v189.6
		c-0.3,19.9,15.5,36.2,35.3,36.5c19.9,0.3,36.2-15.5,36.5-35.3c0-0.4,0-0.8,0-1.2v-5.5c1.3,0.1,2.7,0.2,4,0.2c1.8,0,3.6-0.1,5.4-0.4
		c0.3-0.1,0.7-0.1,1-0.2c27.8-1.9,49.7-24.5,50.5-52.4c32.3-12.3,51.6-45.5,46.5-79.7c-0.4-6.6-2.3-13.1-5.3-18.9
		C207.5,26.5,214.3,15.2,217.9,2.7z"/>
</g>
</svg>
