<svg id="Capa_1" data-name="Capa 1" xmlns="http://www.w3.org/2000/svg" viewBox="0 0 242.12 231.07"><defs><style>.cls-1{fill:#007fff;}</style></defs><title>brain</title><path class="cls-1" d="M181.22,188.28a6.41,6.41,0,0,0-7.64,4.87,25.16,25.16,0,0,1-30,19.09,6.21,6.21,0,0,0-2.14-.1,38.75,38.75,0,0,1,3.56-76.61c0,.69-.07,1.39-.07,2.09a34.89,34.89,0,0,0,34.86,34.85,6.41,6.41,0,0,0,0-12.81,22,22,0,1,1,0-44.08,6.41,6.41,0,0,0,0-12.81,34.9,34.9,0,0,0-31.42,19.77,51.56,51.56,0,0,0-5,102.83l12.81-.41a38,38,0,0,0,29.89-29.05A6.38,6.38,0,0,0,181.22,188.28Z"/><path class="cls-1" d="M181.22,188.28a6.41,6.41,0,0,0-7.64,4.87,25.16,25.16,0,0,1-30,19.09,6.21,6.21,0,0,0-2.14-.1,38.75,38.75,0,0,1,3.56-76.61c0,.69-.07,1.39-.07,2.09a34.89,34.89,0,0,0,34.86,34.85,6.41,6.41,0,0,0,0-12.81,22,22,0,1,1,0-44.08,6.41,6.41,0,0,0,0-12.81,34.9,34.9,0,0,0-31.42,19.77,51.56,51.56,0,0,0-5,102.83l12.81-.41a38,38,0,0,0,29.89-29.05A6.38,6.38,0,0,0,181.22,188.28Z"/><path class="cls-1" d="M182.9,0a36,36,0,0,0-35.94,36v1.49A54,54,0,0,0,85.35,59.18a47.4,47.4,0,0,0-6.74,14.56,54.49,54.49,0,0,0-2.14,13.35A73.72,73.72,0,0,0,40,195.21a72.47,72.47,0,0,0-7.81,11,47,47,0,0,0-7.32,17.44,69.79,69.79,0,0,0-1.63,7.49h13s0-.07,0-.11a6.53,6.53,0,0,0,.73-2.26q.1-.94.27-1.86a59.94,59.94,0,0,1,5.86-14,34.67,34.67,0,0,1,32.32-14.34A6.4,6.4,0,1,0,77,185.8a46.86,46.86,0,0,0-25.28,3.93A60.84,60.84,0,0,1,79.09,99.86a47,47,0,0,0,14.32,22,6.41,6.41,0,0,0,8.38-9.69A34.64,34.64,0,0,1,91.33,76a41.46,41.46,0,0,1,4.38-9.22,35.24,35.24,0,0,1,2.55-3.35,6.42,6.42,0,0,0,.79-1.16q1.08-1.28,2.28-2.49A41.48,41.48,0,0,1,147,51.08v20a6.4,6.4,0,1,0,12.8,0V35.93a23.14,23.14,0,1,1,46.28,0V231.11h12.8V35.93A36,36,0,0,0,182.9,0Z"/><path class="cls-1" d="M179.84,115.58a6.41,6.41,0,0,0,0-12.81,34.9,34.9,0,0,0-31.42,19.77,51.56,51.56,0,0,0-5,102.83l12.81-.41a38,38,0,0,0,29.89-29.05,6.4,6.4,0,1,0-12.5-2.76,25.16,25.16,0,0,1-30,19.09,6.21,6.21,0,0,0-2.14-.1,38.75,38.75,0,0,1,3.56-76.61c0,.69-.07,1.39-.07,2.09a34.89,34.89,0,0,0,34.86,34.85,6.41,6.41,0,0,0,0-12.81,22,22,0,1,1,0-44.08Z"/></svg>