<svg id="Capa_1" data-name="Capa 1" xmlns="http://www.w3.org/2000/svg" viewBox="0 0 242.12 231.07"><defs><style>.cls-1{fill:#00bf00;}</style></defs><title>brain</title><path class="cls-1" d="M161.63,33.36a6.4,6.4,0,0,1-8.42,3.34,48.22,48.22,0,0,0-63.4,25.07,6.41,6.41,0,0,1-5.89,3.87,6.61,6.61,0,0,1-2.54-.53,6.43,6.43,0,0,1-3.33-8.43,60.64,60.64,0,0,1,33.56-32.49c.59-.24,1.18-.44,1.78-.65a48,48,0,0,0-5.26-20.8h14a54.72,54.72,0,0,1,4,17.68,60.56,60.56,0,0,1,32.23,4.52A6.39,6.39,0,0,1,161.63,33.36Z"/><path class="cls-1" d="M205.1,94a24.88,24.88,0,0,1-37.26,21.63,6.48,6.48,0,0,0-1.73-1.11l-.12,0A24.91,24.91,0,0,1,155.25,94V66.86a6.41,6.41,0,0,0-12.82,0V94a37.51,37.51,0,0,0,4.42,17.68,37.88,37.88,0,0,0-9.42,2.38A37.15,37.15,0,0,0,116.83,134a6.41,6.41,0,0,0,3.33,8.43,6.23,6.23,0,0,0,2.54.53,6.45,6.45,0,0,0,5.89-3.85,24.59,24.59,0,0,1,31.49-13.19,37.62,37.62,0,0,0,45-3.62v70.12a23.14,23.14,0,0,1-46.28,0V183.1a37.45,37.45,0,0,0,20.3-28.1,6.41,6.41,0,1,0-12.68-1.84,24.64,24.64,0,0,1-13.88,18.75,6.4,6.4,0,0,0-1.93.25,41.25,41.25,0,0,1-52-32.2,6.26,6.26,0,0,0,.09-3.49,31.62,31.62,0,0,1-.76-3.78v-.16c0-.81,0-1.65.08-2.58a6.39,6.39,0,0,0-.44-2.72,34.66,34.66,0,0,1,25.86-33,6.41,6.41,0,0,0-3.24-12.4,47.49,47.49,0,0,0-34.83,38.39,60.62,60.62,0,0,1-34.73-55c0-1.53.07-3.06.18-4.56A6.57,6.57,0,0,0,51.34,58c0-.77,0-1.55.06-2.31A59.71,59.71,0,0,1,56.11,40a34.62,34.62,0,0,1,29.3-17.07,6.4,6.4,0,1,0-.19-12.8,47.22,47.22,0,0,0-33.67,14.8A60.75,60.75,0,0,1,37.66,2.74H24.22A73.41,73.41,0,0,0,44,35.48a47,47,0,0,0-5.34,18.91,73.66,73.66,0,0,0,46.51,79.68,54.13,54.13,0,0,0,50.49,52.4,5.73,5.73,0,0,0,1,.24,37.66,37.66,0,0,0,5.38.39,37.14,37.14,0,0,0,4-.22v5.5a35.94,35.94,0,1,0,71.88,0V2.74H205.1Z"/></svg>