<?xml version="1.0" encoding="utf-8"?>
<!-- Generator: Adobe Illustrator 24.0.0, SVG Export Plug-In . SVG Version: 6.00 Build 0)  -->
<svg version="1.1" id="Capa_1" xmlns="http://www.w3.org/2000/svg" xmlns:xlink="http://www.w3.org/1999/xlink" x="0px" y="0px"
	 viewBox="0 0 242.1 231.1" style="enable-background:new 0 0 242.1 231.1;" xml:space="preserve">
<style type="text/css">
	.st0{fill:#FFB600;}
</style>
<title>brain</title>
<g>
	<path class="st0" d="M93.7,122.5c-5.8-12.1-18-19.8-31.4-19.8c-3.5-0.1-6.5,2.6-6.7,6.2c-0.1,3.5,2.6,6.5,6.2,6.7
		c0.2,0,0.3,0,0.5,0c12.2,0,22,9.9,22,22c0,12.2-9.9,22-22,22l0,0c-3.5-0.1-6.5,2.6-6.7,6.2s2.6,6.5,6.2,6.7c0.2,0,0.3,0,0.5,0
		c19.2,0,34.8-15.6,34.8-34.9c0-0.7,0-1.4-0.1-2.1c21.3,2.1,36.9,21.1,34.8,42.4c-1.7,17.1-14.4,31-31.2,34.2
		c-0.7-0.1-1.4-0.1-2.1,0.1c-13.6,3-27-5.5-30-19.1c-0.8-3.5-4.2-5.6-7.6-4.9c-3.5,0.8-5.6,4.2-4.9,7.6l0,0
		c3.3,14.8,15,26.2,29.9,29.1l12.8,0.4c28.3-3,48.8-28.4,45.8-56.7C141.8,142.6,119.9,122.8,93.7,122.5L93.7,122.5z"/>
	<path class="st0" d="M93.7,122.5c-5.8-12.1-18-19.8-31.4-19.8c-3.5-0.1-6.5,2.6-6.7,6.2c-0.1,3.5,2.6,6.5,6.2,6.7
		c0.2,0,0.3,0,0.5,0c12.2,0,22,9.9,22,22c0,12.2-9.9,22-22,22l0,0c-3.5-0.1-6.5,2.6-6.7,6.2s2.6,6.5,6.2,6.7c0.2,0,0.3,0,0.5,0
		c19.2,0,34.8-15.6,34.8-34.9c0-0.7,0-1.4-0.1-2.1c21.3,2.1,36.9,21.1,34.8,42.4c-1.7,17.1-14.4,31-31.2,34.2
		c-0.7-0.1-1.4-0.1-2.1,0.1c-13.6,3-27-5.5-30-19.1c-0.8-3.5-4.2-5.6-7.6-4.9c-3.5,0.8-5.6,4.2-4.9,7.6l0,0
		c3.3,14.8,15,26.2,29.9,29.1l12.8,0.4c28.3-3,48.8-28.4,45.8-56.7C141.8,142.6,119.9,122.8,93.7,122.5L93.7,122.5z"/>
	<path class="st0" d="M36.1,35.9C35.8,23.2,46,12.6,58.7,12.3S82.1,22.2,82.4,35c0,0.3,0,0.6,0,1v35.1c0.1,3.5,3.1,6.3,6.7,6.2
		c3.3-0.1,6-2.8,6.2-6.2v-20c15.6-6.7,33.6-3.3,45.6,8.7c0.8,0.8,1.5,1.6,2.3,2.5c0.2,0.4,0.5,0.8,0.8,1.2c0.9,1.1,1.8,2.2,2.6,3.3
		c1.8,2.9,3.3,6,4.4,9.3c4,13.1-0.1,27.3-10.4,36.2c-2.6,2.4-2.7,6.5-0.3,9.1c2.3,2.5,6.1,2.7,8.7,0.6c6.8-5.8,11.7-13.5,14.3-22
		c31,12.9,45.8,48.4,32.9,79.5c-1.5,3.6-3.4,7.1-5.5,10.4c-7.9-3.6-16.7-5-25.3-3.9c-3.5,0.4-6,3.6-5.6,7.1s3.6,6,7.1,5.6
		c12.6-1.5,25,4,32.4,14.3c2.5,4.4,4.5,9.1,5.9,14c0.1,0.6,0.2,1.2,0.3,1.9c0.1,0.8,0.3,1.6,0.7,2.3c0,0,0,0.1,0,0.1h13
		c-0.4-2.5-0.9-5-1.6-7.5c-1.2-6.3-3.7-12.2-7.3-17.4c-2.3-3.9-4.9-7.6-7.8-11c21.6-34.5,11.1-80-23.4-101.6
		c-4.1-2.6-8.5-4.8-13.1-6.5c-0.2-4.5-0.9-9-2.2-13.3c-1.4-5.2-3.7-10.1-6.7-14.6C143.4,38.9,118.3,30,95.2,37.4v-1.5
		C95.5,16.1,79.7-0.3,59.8-0.6S23.6,14.9,23.3,34.7c0,0.4,0,0.8,0,1.2v195.2h12.8V35.9z"/>
	<path class="st0" d="M100.6,212.1c-0.7-0.1-1.4-0.1-2.1,0.1c-13.6,3-27-5.5-30-19.1c-0.8-3.5-4.2-5.6-7.6-4.9
		c-3.5,0.8-5.6,4.2-4.9,7.6l0,0c3.3,14.8,15,26.2,29.9,29.1l12.8,0.4c28.3-3,48.8-28.4,45.8-56.7c-2.8-26.1-24.6-45.9-50.8-46.1
		c-5.8-12.1-18-19.8-31.4-19.8c-3.5-0.1-6.5,2.6-6.7,6.2c-0.1,3.5,2.6,6.5,6.2,6.7c0.2,0,0.3,0,0.5,0c12.2,0,22,9.9,22,22
		c0,12.2-9.9,22-22,22c-3.5-0.1-6.5,2.6-6.7,6.2s2.6,6.5,6.2,6.7c0.2,0,0.3,0,0.5,0c19.2,0,34.8-15.6,34.8-34.8c0-0.7,0-1.4-0.1-2.1
		c21.3,2.1,36.9,21.1,34.8,42.4C130.2,195,117.5,208.9,100.6,212.1L100.6,212.1z"/>
</g>
</svg>
