<?xml version="1.0" encoding="utf-8"?>
<!-- Generator: Adobe Illustrator 24.0.0, SVG Export Plug-In . SVG Version: 6.00 Build 0)  -->
<svg version="1.1" id="Capa_1" xmlns="http://www.w3.org/2000/svg" xmlns:xlink="http://www.w3.org/1999/xlink" x="0px" y="0px"
	 viewBox="0 0 337.8 218" style="enable-background:new 0 0 337.8 218;" xml:space="preserve">
<style type="text/css">
	.st0{opacity:0.26;fill:url(#SVGID_1_);}
	.st1{opacity:0.6;fill:url(#SVGID_2_);}
	.st2{fill:url(#SVGID_3_);}
	.st3{opacity:0.45;fill:#FFFFFF;}
	.st4{fill:url(#SVGID_4_);}
	.st5{opacity:0.43;fill:#FFFFFF;}
	.st6{fill:url(#SVGID_5_);}
	.st7{fill:url(#SVGID_6_);}
	.st8{opacity:0.47;fill:#FFFFFF;}
	.st9{fill:url(#SVGID_7_);}
	.st10{fill:url(#SVGID_8_);}
	.st11{opacity:0.3;}
	.st12{fill:url(#SVGID_9_);}
	.st13{fill:url(#SVGID_10_);}
	.st14{fill:url(#SVGID_11_);}
	.st15{fill:url(#SVGID_12_);}
	.st16{fill:url(#SVGID_13_);}
	.st17{fill:url(#SVGID_14_);}
	.st18{fill:url(#SVGID_15_);}
	.st19{fill:url(#SVGID_16_);}
	.st20{fill:url(#SVGID_17_);}
	.st21{fill:url(#SVGID_18_);}
	.st22{fill:url(#SVGID_19_);}
	.st23{fill:url(#SVGID_20_);}
	.st24{opacity:0.61;fill:url(#SVGID_21_);}
	.st25{opacity:0.61;fill:url(#SVGID_22_);}
	.st26{opacity:0.61;fill:url(#SVGID_23_);}
	.st27{opacity:0.61;fill:url(#SVGID_24_);}
	.st28{fill:url(#SVGID_25_);}
	.st29{fill:url(#SVGID_26_);}
	.st30{fill:url(#SVGID_27_);}
	.st31{fill:url(#SVGID_28_);}
	.st32{fill:url(#SVGID_29_);}
	.st33{filter:url(#Adobe_OpacityMaskFilter);}
	.st34{filter:url(#Adobe_OpacityMaskFilter_1_);}
	.st35{mask:url(#SVGID_30_);fill:url(#SVGID_31_);}
	.st36{opacity:0.71;fill:url(#SVGID_32_);}
	.st37{fill:url(#SVGID_33_);}
	.st38{opacity:0.53;fill:#FFFFFF;}
	.st39{fill:url(#SVGID_34_);}
	.st40{fill:url(#SVGID_35_);}
	.st41{fill:url(#SVGID_36_);}
	.st42{fill:url(#SVGID_37_);}
	.st43{fill:url(#SVGID_38_);}
	.st44{fill:url(#SVGID_39_);}
	.st45{fill:url(#SVGID_40_);}
	.st46{fill:#FFFFFF;}
	.st47{fill:url(#SVGID_41_);}
	.st48{fill:url(#SVGID_42_);}
	.st49{fill:url(#SVGID_43_);}
	.st50{fill:url(#SVGID_44_);}
	.st51{fill:url(#SVGID_45_);}
	.st52{fill:url(#SVGID_46_);}
	.st53{fill:url(#SVGID_47_);}
	.st54{fill:url(#SVGID_48_);}
	.st55{fill:url(#SVGID_49_);}
	.st56{fill:url(#SVGID_50_);}
	.st57{fill:url(#SVGID_51_);}
	.st58{fill:url(#SVGID_52_);}
	.st59{fill:url(#SVGID_53_);}
	.st60{fill:url(#SVGID_54_);}
	.st61{fill:url(#SVGID_55_);}
	.st62{fill:url(#SVGID_56_);}
	.st63{fill:url(#SVGID_57_);}
	.st64{fill:url(#SVGID_58_);}
	.st65{fill:url(#SVGID_59_);}
	.st66{fill:url(#SVGID_60_);}
	.st67{fill:url(#SVGID_61_);}
	.st68{fill:url(#SVGID_62_);}
	.st69{fill:url(#SVGID_63_);}
	.st70{fill:url(#SVGID_64_);}
	.st71{fill:url(#SVGID_65_);}
	.st72{fill:url(#SVGID_66_);}
	.st73{fill:url(#SVGID_67_);}
	.st74{fill-rule:evenodd;clip-rule:evenodd;fill:url(#SVGID_68_);}
	.st75{fill:url(#SVGID_69_);}
	.st76{fill:url(#SVGID_70_);}
	.st77{fill:url(#SVGID_71_);}
	.st78{fill:url(#SVGID_72_);}
	.st79{fill:url(#SVGID_73_);}
	.st80{fill:url(#SVGID_74_);}
	.st81{opacity:0.61;fill:url(#SVGID_75_);}
	.st82{fill:url(#SVGID_76_);}
	.st83{fill:url(#SVGID_77_);}
	.st84{fill:url(#SVGID_78_);}
	.st85{fill:url(#SVGID_79_);}
	.st86{fill:url(#SVGID_80_);}
	.st87{fill:url(#SVGID_81_);}
</style>
<g>
	<g>
		<linearGradient id="SVGID_1_" gradientUnits="userSpaceOnUse" x1="280.8719" y1="101.034" x2="-15.0307" y2="102.1505">
			<stop  offset="0" style="stop-color:#B37CFF"/>
			<stop  offset="1" style="stop-color:#F895E7"/>
		</linearGradient>
		<path class="st0" d="M36.8,177.2c8.9,4.1,18.6,6,28.2,6.9c10.7,1,21.5,0.9,32.2,1.6c0.8,0.1,1.5,0.1,2.3,0.2
			c105.4,2.8,182.2,2.8,192,0c6.7-1.9,11.3-6,11.3-6c1.5-1.3,5.1-4.3,7.4-10.3c3.3-8.5,1.2-18.4,3.2-27.3c1.8-8.1,7-15.3,7.5-23.6
			c0.4-5.6-1.4-11-3.2-16.3c-7.5-21.8-17.7-40-35.7-53.8c-10.6-8.1-23.4-12.3-36.4-11.8c-14.8,0.6-32.8,5.6-45.8-4.6
			c-3.1-2.5-5.7-5.7-8.7-8.3c-11.2-9.6-25.6-8.8-31.4-8.8c-14.1,0.1-13.5,4.2-33.8,7c-14.1,1.9-21.8,3-31.7,0.3
			c-11-2.9-13.9-7.5-23.6-7.4c-2.5,0-12.2,0.1-19.2,6.4C39.4,32,41.1,54.1,47.1,67.7c3.7,8.3,7.1,9.2,6.7,14.6
			c-0.4,6.4-5.9,9.1-19.7,26.2c0,0-6.2,7.6-6.2,7.6c-9.2,11.3-13.3,26.7-9.5,41.3C21.3,167.9,27.3,172.8,36.8,177.2z"/>
		<linearGradient id="SVGID_2_" gradientUnits="userSpaceOnUse" x1="270.1749" y1="108.7271" x2="0.8266" y2="109.7435">
			<stop  offset="0" style="stop-color:#B37CFF"/>
			<stop  offset="1" style="stop-color:#F895E7"/>
		</linearGradient>
		<path class="st1" d="M305.9,110.1c-0.7-3.1-1.8-6.1-2.9-9.1c-3.8-9.9-8.9-18.4-15.9-26c-2.3-2.5-4.6-4.9-7.2-6.9
			c-11-8.8-23.6-14.3-37.5-13.9c0,0-25.2,0.9-25.2,0.9c-22.4,0.8-39.4-15.2-60.4-20.8c-6.3-1.7-12.9-2.3-19.4-2.4
			c-4.3-0.1-8.6-0.1-12.8,0.8c-12.2,2.5-22.3,11.6-30.1,22c-7.7,10.4-13.6,22.3-20.9,33c-8,11.8-18.5,20.8-27.4,31.5
			c0,0-5.8,7-5.8,7C33.8,134,30.1,144,30,154.5c-0.1,5.6,1.9,11,5.4,15c9.3,10.6,18.9,17.1,33.2,17.1c29.8-0.2,59.6-0.2,89.4-0.2
			c44.1,0,89.8,2.2,126.8-25.9c4.9-3.7,9.5-7.9,13.1-13.1c4.7-6.9,7.3-15.4,8.3-23.9C306.7,119,306.8,114.5,305.9,110.1z"/>
	</g>
	<g>
		<g>
			<linearGradient id="SVGID_3_" gradientUnits="userSpaceOnUse" x1="56.348" y1="73.8297" x2="164.3098" y2="223.4458">
				<stop  offset="0" style="stop-color:#CB236D"/>
				<stop  offset="1" style="stop-color:#4C246D"/>
			</linearGradient>
			<path class="st2" d="M103.1,155.8c0,0,11.4-20.8-0.5-40.7c-11-18.4-39.8-60.9-38.1-85.4c0.1-1.1-2-0.7-2.7,0.6
				c-7.6,13-23.6,45.5-16.5,76.7C54.6,147.1,103.1,155.8,103.1,155.8z"/>
			<path class="st3" d="M59.9,52.6c-1,2.1-1.6,4.4-2.2,6.7c-0.6,2.3-1,4.6-1.2,6.9c-0.3,2.3-0.4,4.7-0.4,7c0,2.4,0.2,4.7,0.5,7
				c0.7,4.7,1.9,9.3,3.7,13.6l0.7,1.6c0.1,0.3,0.2,0.5,0.4,0.8l0.4,0.8l0.8,1.6l0.8,1.6l0.4,0.8c0.1,0.3,0.3,0.5,0.5,0.8l0.9,1.5
				c0.6,1,1.3,2,1.9,3c5.2,7.8,10.9,15.3,16.8,22.5c2.9,3.6,5.9,7.2,8.6,11c1.4,1.9,2.6,3.8,3.7,5.9c0.5,1,1,2.1,1.4,3.2
				c0.4,1.1,0.7,2.2,0.9,3.3l0,0c0,0.1,0.1,0.2,0.2,0.1c0.1,0,0.1-0.1,0.1-0.2c-0.2-1.2-0.4-2.3-0.8-3.5c-0.4-1.1-0.8-2.2-1.3-3.3
				c-1-2.1-2.3-4.1-3.6-6.1c-1.3-1.9-2.7-3.8-4.2-5.7c-1.4-1.9-2.9-3.7-4.3-5.5c-1.4-1.8-2.9-3.7-4.3-5.5c-1.4-1.8-2.8-3.7-4.2-5.6
				c-2.8-3.8-5.4-7.6-8-11.5c-0.6-1-1.3-2-1.9-2.9l-0.9-1.5c-0.1-0.2-0.3-0.5-0.5-0.7l-0.4-0.8l-0.8-1.5l-0.8-1.6l-0.4-0.8
				c-0.1-0.3-0.2-0.5-0.4-0.8l-0.7-1.6c-0.2-0.5-0.4-1.1-0.6-1.6L60.5,91l-0.3-0.8c-0.2-0.5-0.4-1.1-0.6-1.6l-0.5-1.7
				c-0.6-2.2-1.1-4.5-1.5-6.8c-0.7-4.6-0.9-9.2-0.5-13.9C57.5,61.6,58.3,57,59.9,52.6C59.9,52.6,59.9,52.6,59.9,52.6
				C59.9,52.6,59.9,52.6,59.9,52.6z"/>
		</g>
		<g>
			<linearGradient id="SVGID_4_" gradientUnits="userSpaceOnUse" x1="-40.3946" y1="2.4226" x2="83.7187" y2="154.5892">
				<stop  offset="0" style="stop-color:#A737D5"/>
				<stop  offset="1" style="stop-color:#EF497A"/>
			</linearGradient>
			<path class="st4" d="M32.2,56.4c0.1-1.2,1.7-1.5,2.1-0.4C39,66.2,52.2,92.7,68,105.4c25.8,20.6,46.6,57.4,35.7,79.8
				C103.7,185.2,25.1,183.2,32.2,56.4z"/>
			<path class="st5" d="M36.5,71.4c0.1,0.4,0.2,0.7,0.3,1l0.3,0.9l0.6,1.8l1.2,3.5c0.8,2.4,1.7,4.7,2.5,7c1.8,4.7,3.6,9.3,5.6,13.9
				c3.9,9.2,8.3,18.2,13.1,26.9c4.8,8.8,10.1,17.3,16.1,25.3c3,4,6.1,7.9,9.5,11.6c3.4,3.7,6.9,7.2,10.7,10.5c0.2,0.1,0.4,0.1,0.6,0
				c0.1-0.2,0.1-0.4,0-0.5c-7.1-7-13.3-14.7-19-22.8c-5.7-8.1-10.9-16.6-15.7-25.2c-4.8-8.7-9.2-17.6-13.4-26.6
				c-2.1-4.5-4.1-9.1-6-13.6c-1-2.3-1.9-4.6-2.8-6.9l-1.4-3.5L37.9,73l-0.3-0.9l-0.3-0.8l0-0.1c-0.1-0.2-0.3-0.3-0.5-0.2
				C36.6,71,36.5,71.2,36.5,71.4z"/>
		</g>
	</g>
	<g>
		<g>
			
				<linearGradient id="SVGID_5_" gradientUnits="userSpaceOnUse" x1="3204.082" y1="4285.4497" x2="3226.7161" y2="4285.4497" gradientTransform="matrix(1.5501 0.9696 -0.5303 0.8478 -2416.7737 -6627.458)">
				<stop  offset="0" style="stop-color:#A737D5"/>
				<stop  offset="1" style="stop-color:#EF497A"/>
			</linearGradient>
			<path class="st6" d="M273.8,162.3c0,0-7.8-14.3,0.4-27.9c7.6-12.7,27.3-41.8,26.1-58.6c-0.1-0.7,1.4-0.5,1.9,0.4
				c5.2,8.9,16.2,31.3,11.3,52.6C307.1,156.3,273.8,162.3,273.8,162.3z"/>
			<path class="st3" d="M303.5,91.5c1.1,3,1.7,6.2,1.9,9.4c0.3,3.2,0.1,6.4-0.4,9.5c-0.2,1.6-0.6,3.1-1,4.6l-0.3,1.1
				c-0.1,0.4-0.3,0.8-0.4,1.1l-0.2,0.6l-0.2,0.6c-0.1,0.4-0.3,0.7-0.4,1.1l-0.5,1.1c-0.1,0.2-0.2,0.4-0.2,0.5l-0.3,0.5l-0.5,1.1
				l-0.6,1l-0.3,0.5c-0.1,0.2-0.2,0.3-0.3,0.5l-0.6,1c-0.4,0.7-0.9,1.3-1.3,2c-1.8,2.7-3.6,5.3-5.5,7.9c-0.9,1.3-1.9,2.6-2.9,3.8
				c-1,1.3-2,2.5-2.9,3.8c-1,1.3-2,2.5-3,3.8c-1,1.3-1.9,2.6-2.9,3.9c-0.9,1.3-1.8,2.7-2.5,4.2c-0.3,0.7-0.7,1.5-0.9,2.2
				c-0.2,0.8-0.4,1.6-0.5,2.4c0,0.1,0,0.1,0.1,0.1c0.1,0,0.1,0,0.1-0.1l0,0c0.1-0.8,0.4-1.5,0.6-2.3c0.3-0.7,0.6-1.5,1-2.2
				c0.7-1.4,1.6-2.7,2.6-4c1.9-2.6,3.9-5.1,5.9-7.6c4.1-5,8-10.1,11.5-15.5c0.4-0.7,0.9-1.3,1.3-2l0.6-1c0.1-0.2,0.2-0.3,0.3-0.5
				l0.3-0.5l0.6-1.1l0.5-1.1l0.3-0.5c0.1-0.2,0.2-0.4,0.2-0.6l0.5-1.1c1.2-3,2.1-6.2,2.5-9.4c0.2-1.6,0.3-3.2,0.4-4.8
				c0-1.6-0.1-3.2-0.2-4.8c-0.2-1.6-0.5-3.2-0.9-4.8C304.6,94.5,304.1,92.9,303.5,91.5C303.5,91.5,303.5,91.5,303.5,91.5
				C303.5,91.5,303.5,91.5,303.5,91.5z"/>
		</g>
		<g>
			<linearGradient id="SVGID_6_" gradientUnits="userSpaceOnUse" x1="222.1134" y1="93.7502" x2="306.9652" y2="93.7502">
				<stop  offset="0" style="stop-color:#53D8FF"/>
				<stop  offset="1" style="stop-color:#3840F7"/>
			</linearGradient>
			<path class="st7" d="M306.9,29.5c0.5-0.9-0.8-1.6-1.9-1c-11.2,6.4-39.4,25.9-43.5,61.3c-5.1,44.4-21.6,60.1-39.4,69.5
				c0,0,21.9-4,39.4-20C304.4,100.1,297.7,46.2,306.9,29.5z"/>
			<path class="st8" d="M295.4,42.8c-1.5,1.7-2.9,3.4-4.1,5.3c-0.3,0.5-0.6,0.9-0.9,1.4l-0.9,1.4l-0.4,0.7l-0.4,0.7l-0.8,1.4
				c-2.2,3.9-4.1,8-5.8,12.1l-1.2,3.1c-0.4,1.1-0.7,2.1-1.1,3.2l-0.5,1.6c-0.2,0.5-0.3,1.1-0.5,1.6l-0.9,3.2
				c-0.1,0.3-0.2,0.5-0.2,0.8l-0.2,0.8l-0.4,1.6l-0.4,1.6c-0.1,0.5-0.3,1.1-0.4,1.6l-0.7,3.3c-0.2,1.1-0.4,2.2-0.6,3.3
				c-1.6,8.7-4.6,17.1-8.2,25.1c-0.5,1-0.9,2-1.4,3c-0.5,1-1,2-1.5,3c-1,2-2.1,3.9-3.2,5.8c-1.1,1.9-2.2,3.8-3.4,5.7
				c-0.6,0.9-1.2,1.9-1.8,2.8c-0.6,0.9-1.3,1.8-1.9,2.7l0,0c-0.3,0.4-0.2,0.9,0.2,1.1c0.3,0.3,0.8,0.2,1.1-0.2
				c1.4-1.8,2.6-3.6,3.9-5.5c1.2-1.9,2.4-3.8,3.5-5.7c1.1-1.9,2.2-3.9,3.2-5.9c0.5-1,1-2,1.5-3c0.5-1,1-2,1.4-3c0.5-1,0.9-2,1.4-3.1
				c0.4-1,0.9-2.1,1.3-3.1c0.8-2.1,1.6-4.2,2.3-6.3l0.5-1.6c0.2-0.5,0.3-1.1,0.5-1.6c0.3-1.1,0.6-2.2,0.9-3.2c0.5-2.2,1-4.4,1.4-6.6
				l1.2-6.6c0.1-0.5,0.2-1.1,0.3-1.6l0.4-1.6l0.4-1.6l0.2-0.8c0.1-0.3,0.1-0.5,0.2-0.8l0.9-3.2c0.1-0.5,0.3-1.1,0.4-1.6l0.5-1.6
				c0.3-1.1,0.7-2.1,1-3.2l1.1-3.1c1.6-4.1,3.3-8.2,5.4-12.1l0.8-1.5l0.4-0.7l0.4-0.7l0.8-1.4c0.3-0.5,0.6-0.9,0.9-1.4
				c0.3-0.5,0.6-0.9,0.9-1.4c0.3-0.5,0.6-0.9,1-1.4c0.6-0.9,1.3-1.8,2-2.6l0,0c0.1-0.1,0.1-0.2,0-0.3
				C295.6,42.7,295.5,42.8,295.4,42.8z"/>
		</g>
	</g>
	<g>
		
			<linearGradient id="SVGID_7_" gradientUnits="userSpaceOnUse" x1="328.7875" y1="156.5684" x2="105.0665" y2="105.64" gradientTransform="matrix(0.9999 -1.030000e-02 1.030000e-02 0.9999 -9.3407 -23.2064)">
			<stop  offset="0" style="stop-color:#FDF53F"/>
			<stop  offset="1" style="stop-color:#D93C65"/>
		</linearGradient>
		<path class="st9" d="M290.6,126c-3.8-21.9-19.5-38.8-34.1-52.3c-10.9-10.1-22.3-19.6-34-28.5c-9-6.9-19.6-13.9-29.9-18.1
			c-5.6-2.3-11.6-3.8-17.5-2.9c-10.9,1.7-16.2,8.6-17.7,21c-0.8,6.9,0.8,19.5-6.7,21.1c-6.6,1.4-13.2-2.8-19.4-4.9
			c-2.1-0.7-4.2-1.4-6.4-1.6c-7.2-0.4-13.6,6.2-16.1,13.9c-5.2,15.9,7.6,34.2,16.3,45.7c10.2,13.3,22.4,24.4,35.1,34.5
			c21.4,17,46.6,29.7,72.9,32c15.8,1.4,33.1-1.7,44.8-14.8C288.3,159.6,293.4,142.2,290.6,126z M178.5,56.2
			c-7.5-2.6-12.3-9.2-10.8-14.8s8.8-8,16.2-5.4c7.5,2.6,12.3,9.2,10.8,14.8C193.2,56.3,186,58.8,178.5,56.2z"/>
		
			<linearGradient id="SVGID_8_" gradientUnits="userSpaceOnUse" x1="186.2887" y1="95.7548" x2="372.9382" y2="361.0948" gradientTransform="matrix(0.9999 -1.030000e-02 1.030000e-02 0.9999 -9.3407 -23.2064)">
			<stop  offset="0" style="stop-color:#FDF53F"/>
			<stop  offset="1" style="stop-color:#D93C65"/>
		</linearGradient>
		<path class="st10" d="M292,124.1c-3.8-21.7-19.3-38.5-33.7-51.8c-10.8-10-22.1-19.4-33.7-28.3c-8.9-6.8-19.4-13.8-29.6-17.9
			c-5.6-2.3-11.5-3.8-17.3-2.9c-10.8,1.7-16.1,8.6-17.5,20.8c-0.8,6.9,0.8,19.4-6.6,20.9c-6.5,1.4-13.1-2.8-19.2-4.9
			c-2.1-0.7-4.2-1.4-6.4-1.5c-7.1-0.4-13.5,6.1-16,13.7c-5.2,15.8,7.5,33.9,16.2,45.3c10.1,13.2,22.2,24.2,34.8,34.2
			c21.2,16.9,46.2,29.4,72.2,31.8c15.7,1.4,32.8-1.6,44.4-14.6C289.7,157.5,294.8,140.2,292,124.1z M180.9,54.9
			c-7.4-2.6-12.2-9.1-10.7-14.7c1.5-5.5,8.7-7.9,16.1-5.4c7.4,2.6,12.2,9.1,10.7,14.7C195.5,55.1,188.3,57.5,180.9,54.9z"/>
		<g class="st11">
			
				<linearGradient id="SVGID_9_" gradientUnits="userSpaceOnUse" x1="-1741.8049" y1="1967.7345" x2="-1542.4486" y2="2251.1384" gradientTransform="matrix(0.802 0.5974 -0.5974 0.802 2710.9758 -738.7533)">
				<stop  offset="0" style="stop-color:#2B3582"/>
				<stop  offset="1" style="stop-color:#150E42"/>
			</linearGradient>
			<ellipse class="st12" cx="130.6" cy="90.1" rx="11.8" ry="13.4"/>
		</g>
		
			<linearGradient id="SVGID_10_" gradientUnits="userSpaceOnUse" x1="-329.4966" y1="231.5594" x2="-130.1396" y2="514.9644" gradientTransform="matrix(0.802 0.5974 -0.5974 0.802 539.9857 -190.0901)">
			<stop  offset="0" style="stop-color:#FDF53F"/>
			<stop  offset="1" style="stop-color:#D93C65"/>
		</linearGradient>
		<ellipse class="st13" cx="129.5" cy="89.5" rx="9.2" ry="10.5"/>
		
			<linearGradient id="SVGID_11_" gradientUnits="userSpaceOnUse" x1="196.6016" y1="141.7568" x2="151.3255" y2="154.6204" gradientTransform="matrix(0.9999 -1.030000e-02 1.030000e-02 0.9999 -9.3407 -23.2064)">
			<stop  offset="0" style="stop-color:#FDF53F"/>
			<stop  offset="1" style="stop-color:#D93C65"/>
		</linearGradient>
		<ellipse class="st14" cx="155.8" cy="126.2" rx="11.8" ry="13.4"/>
		
			<linearGradient id="SVGID_12_" gradientUnits="userSpaceOnUse" x1="181.3292" y1="101.6928" x2="152.222" y2="182.9399" gradientTransform="matrix(0.9999 -1.030000e-02 1.030000e-02 0.9999 -9.3407 -23.2064)">
			<stop  offset="0" style="stop-color:#DA342D"/>
			<stop  offset="1" style="stop-color:#F3A84A"/>
		</linearGradient>
		<ellipse class="st15" cx="155.8" cy="126.2" rx="10.9" ry="12.3"/>
		
			<linearGradient id="SVGID_13_" gradientUnits="userSpaceOnUse" x1="232.0245" y1="154.2736" x2="179.4782" y2="199.4537" gradientTransform="matrix(0.9999 -1.030000e-02 1.030000e-02 0.9999 -9.3407 -23.2064)">
			<stop  offset="0" style="stop-color:#FDF53F"/>
			<stop  offset="1" style="stop-color:#D93C65"/>
		</linearGradient>
		<ellipse class="st16" cx="195.2" cy="154.2" rx="11.8" ry="13.4"/>
		
			<linearGradient id="SVGID_14_" gradientUnits="userSpaceOnUse" x1="210.6949" y1="171.1022" x2="152.5942" y2="231.1396" gradientTransform="matrix(0.9999 -1.030000e-02 1.030000e-02 0.9999 -9.3407 -23.2064)">
			<stop  offset="0" style="stop-color:#53D8FF"/>
			<stop  offset="1" style="stop-color:#3840F7"/>
		</linearGradient>
		<ellipse class="st17" cx="195.1" cy="154.1" rx="10.1" ry="11.5"/>
		
			<linearGradient id="SVGID_15_" gradientUnits="userSpaceOnUse" x1="250.528" y1="169.9156" x2="224.2656" y2="216.1242" gradientTransform="matrix(0.9999 -1.030000e-02 1.030000e-02 0.9999 -9.3407 -23.2064)">
			<stop  offset="0" style="stop-color:#FDF53F"/>
			<stop  offset="1" style="stop-color:#D93C65"/>
		</linearGradient>
		<ellipse class="st18" cx="230.2" cy="167.1" rx="11.8" ry="13.4"/>
		
			<linearGradient id="SVGID_16_" gradientUnits="userSpaceOnUse" x1="240.6707" y1="184.9801" x2="210.1561" y2="258.871" gradientTransform="matrix(0.9999 -1.030000e-02 1.030000e-02 0.9999 -9.3407 -23.2064)">
			<stop  offset="0" style="stop-color:#FDF53F"/>
			<stop  offset="1" style="stop-color:#D93C65"/>
		</linearGradient>
		<ellipse class="st19" cx="229.9" cy="167.4" rx="9.8" ry="11.1"/>
		
			<linearGradient id="SVGID_17_" gradientUnits="userSpaceOnUse" x1="292.5533" y1="137.7861" x2="266.3573" y2="198.5742" gradientTransform="matrix(0.9999 -1.030000e-02 1.030000e-02 0.9999 -9.3407 -23.2064)">
			<stop  offset="0" style="stop-color:#FDF53F"/>
			<stop  offset="1" style="stop-color:#D93C65"/>
		</linearGradient>
		<ellipse class="st20" cx="264.5" cy="159.5" rx="11.8" ry="13.4"/>
		
			<linearGradient id="SVGID_18_" gradientUnits="userSpaceOnUse" x1="300.5874" y1="142.1294" x2="270.0989" y2="188.3703" gradientTransform="matrix(0.9999 -1.030000e-02 1.030000e-02 0.9999 -9.3407 -23.2064)">
			<stop  offset="0" style="stop-color:#FDF53F"/>
			<stop  offset="1" style="stop-color:#D93C65"/>
		</linearGradient>
		<ellipse class="st21" cx="264.3" cy="159.8" rx="10.8" ry="12.3"/>
		
			<linearGradient id="SVGID_19_" gradientUnits="userSpaceOnUse" x1="291.0056" y1="127.1037" x2="277.1448" y2="169.0244" gradientTransform="matrix(0.9999 -1.030000e-02 1.030000e-02 0.9999 -9.3407 -23.2064)">
			<stop  offset="0" style="stop-color:#FDF53F"/>
			<stop  offset="1" style="stop-color:#D93C65"/>
		</linearGradient>
		<ellipse class="st22" cx="275.1" cy="125.3" rx="11.8" ry="13.4"/>
		
			<linearGradient id="SVGID_20_" gradientUnits="userSpaceOnUse" x1="255.5781" y1="131.0248" x2="305.9775" y2="169.2397" gradientTransform="matrix(0.9999 -1.030000e-02 1.030000e-02 0.9999 -9.3407 -23.2064)">
			<stop  offset="0" style="stop-color:#53D8FF"/>
			<stop  offset="1" style="stop-color:#3840F7"/>
		</linearGradient>
		<ellipse class="st23" cx="275" cy="125.5" rx="10.7" ry="12.1"/>
		<linearGradient id="SVGID_21_" gradientUnits="userSpaceOnUse" x1="331.1309" y1="132.2034" x2="106.017" y2="57.9158">
			<stop  offset="0" style="stop-color:#FDF53F"/>
			<stop  offset="1" style="stop-color:#D93C65"/>
		</linearGradient>
		<path class="st24" d="M167.7,63.4l-14.5,14.7c-2.4,2.4-2.6,6.6-0.4,9.2l3.2,4c2.5,3.2,6.9,2.8,9-0.7L176.3,72
			c1.5-2.4,1.3-5.7-0.3-7.9v0C173.9,61.3,170.1,61,167.7,63.4z"/>
		<linearGradient id="SVGID_22_" gradientUnits="userSpaceOnUse" x1="329.0821" y1="138.4121" x2="103.9677" y2="64.1243">
			<stop  offset="0" style="stop-color:#FDF53F"/>
			<stop  offset="1" style="stop-color:#D93C65"/>
		</linearGradient>
		<path class="st25" d="M180.4,74.8L171.7,96c-1.3,3.1-0.4,6.7,2.1,8.6l6.2,4.8c3.8,2.9,8.9,0.2,9.4-4.9l2.5-26
			c0.3-2.9-1.1-5.7-3.4-6.9v0C185.5,69.9,181.9,71.4,180.4,74.8z"/>
		<linearGradient id="SVGID_23_" gradientUnits="userSpaceOnUse" x1="329.8624" y1="136.0473" x2="104.7483" y2="61.7596">
			<stop  offset="0" style="stop-color:#FDF53F"/>
			<stop  offset="1" style="stop-color:#D93C65"/>
		</linearGradient>
		<path class="st26" d="M201.7,73.1c-1.5,0.8-2.8,2.2-2.7,4.3c0.8,11.1,1.3,22.3,2.2,33.5c0.1,1.5,0.1,3.2,0.5,4.6
			c6,0.4,12,1.4,18,1.3c2.9,0.2,4.8-3.3,3.3-6.2c-2.8-6.2-6.2-12-9.3-18c-3.3-6.4-6.6-12.9-9.9-19.3
			C203.3,72.1,202.6,72.6,201.7,73.1z"/>
		<linearGradient id="SVGID_24_" gradientUnits="userSpaceOnUse" x1="335.304" y1="119.5583" x2="110.1899" y2="45.2706">
			<stop  offset="0" style="stop-color:#FDF53F"/>
			<stop  offset="1" style="stop-color:#D93C65"/>
		</linearGradient>
		<path class="st27" d="M209.3,69.8c5.1,7.1,18.3,26.8,24.9,36.6c1.9,2.9,5.7,2.8,7.6-0.1l9.5-14.8c1.6-2.5,1-6-1.3-7.7l-33.3-24.5
			c-2.4-1.7-5.5-0.8-6.8,2.1l-1.1,2.5C207.9,65.8,208.1,68.1,209.3,69.8z"/>
	</g>
	<g>
		
			<linearGradient id="SVGID_25_" gradientUnits="userSpaceOnUse" x1="-1419.3835" y1="152.0361" x2="-1448.6088" y2="318.6991" gradientTransform="matrix(1 0 0 1 1513.0023 0)">
			<stop  offset="0" style="stop-color:#2B3582"/>
			<stop  offset="1" style="stop-color:#150E42"/>
		</linearGradient>
		<path class="st28" d="M91.4,191.2c-0.1,0-0.2,0-0.3,0c-1.4-0.2-2.4-1.4-2.2-2.8l15.8-137.9c0.2-1.4,1.4-2.4,2.8-2.2
			c1.4,0.2,2.4,1.4,2.2,2.8L93.9,189C93.7,190.3,92.6,191.2,91.4,191.2z"/>
		
			<linearGradient id="SVGID_26_" gradientUnits="userSpaceOnUse" x1="-1357.556" y1="162.8779" x2="-1386.7814" y2="329.5415" gradientTransform="matrix(1 0 0 1 1513.0023 0)">
			<stop  offset="0" style="stop-color:#2B3582"/>
			<stop  offset="1" style="stop-color:#150E42"/>
		</linearGradient>
		<path class="st29" d="M178.5,191.2c-1.2,0-2.2-0.8-2.5-2L145.1,51.3c-0.3-1.4,0.6-2.7,1.9-3c1.4-0.3,2.7,0.6,3,1.9l30.9,137.9
			c0.3,1.4-0.6,2.7-1.9,3C178.8,191.2,178.7,191.2,178.5,191.2z"/>
		
			<linearGradient id="SVGID_27_" gradientUnits="userSpaceOnUse" x1="-1387.2749" y1="157.6665" x2="-1416.5001" y2="324.3298" gradientTransform="matrix(1 0 0 1 1513.0023 0)">
			<stop  offset="0" style="stop-color:#2B3582"/>
			<stop  offset="1" style="stop-color:#150E42"/>
		</linearGradient>
		<path class="st30" d="M126.3,191.2c-1.4,0-2.5-1.1-2.5-2.5v-68.1c0-1.4,1.1-2.5,2.5-2.5c1.4,0,2.5,1.1,2.5,2.5v68.1
			C128.8,190.1,127.6,191.2,126.3,191.2z"/>
		<linearGradient id="SVGID_28_" gradientUnits="userSpaceOnUse" x1="137.1622" y1="50.2017" x2="103.1976" y2="267.4172">
			<stop  offset="0" style="stop-color:#2B3582"/>
			<stop  offset="1" style="stop-color:#150E42"/>
		</linearGradient>
		<path class="st31" d="M75.7,35.4l8.9,111.8c0.2,2.4,2.2,4.2,4.6,4.1l92.7-2.3c2.7-0.1,4.7-2.5,4.3-5.2L168.4,32.4
			c-0.4-2.2-2.3-3.8-4.5-3.8l-83.8,1.9C77.5,30.6,75.5,32.8,75.7,35.4z"/>
		<linearGradient id="SVGID_29_" gradientUnits="userSpaceOnUse" x1="182.2162" y1="-17.1261" x2="28.8094" y2="302.0744">
			<stop  offset="0" style="stop-color:#53D8FF"/>
			<stop  offset="1" style="stop-color:#3840F7"/>
		</linearGradient>
		<path class="st32" d="M83.5,33.6l77.7-1.8c2.2-0.1,4.2,1.6,4.5,3.8l16.7,105.2c0.4,2.7-1.6,5.1-4.3,5.2L92.1,148
			c-2.4,0.1-4.4-1.7-4.6-4.1L79.1,38.4C78.9,35.9,80.9,33.7,83.5,33.6z"/>
		<defs>
			<filter id="Adobe_OpacityMaskFilter" filterUnits="userSpaceOnUse" x="85.5" y="38.1" width="92.9" height="104.4">
				<feFlood  style="flood-color:white;flood-opacity:1" result="back"/>
				<feBlend  in="SourceGraphic" in2="back" mode="normal"/>
			</filter>
		</defs>
		<mask maskUnits="userSpaceOnUse" x="85.5" y="38.1" width="92.9" height="104.4" id="SVGID_30_">
			<g class="st33">
				<defs>
					<filter id="Adobe_OpacityMaskFilter_1_" filterUnits="userSpaceOnUse" x="85.5" y="38.1" width="92.9" height="104.4">
						<feFlood  style="flood-color:white;flood-opacity:1" result="back"/>
						<feBlend  in="SourceGraphic" in2="back" mode="normal"/>
					</filter>
				</defs>
				<mask maskUnits="userSpaceOnUse" x="85.5" y="38.1" width="92.9" height="104.4" id="SVGID_30_">
				</mask>
				<linearGradient id="SVGID_31_" gradientUnits="userSpaceOnUse" x1="132.0067" y1="90.0287" x2="37.2029" y2="284.903">
					<stop  offset="0" style="stop-color:#FFFFFF"/>
					<stop  offset="1" style="stop-color:#000000"/>
				</linearGradient>
				<path class="st35" d="M89.4,39.8l69.8-1.6c2,0,3.7,1.4,4.1,3.4l15,94.5c0.4,2.4-1.4,4.6-3.9,4.6l-77.4,1.9
					c-2.1,0.1-3.9-1.6-4.1-3.7l-7.5-94.8C85.3,41.8,87.1,39.8,89.4,39.8z"/>
			</g>
		</mask>
		<linearGradient id="SVGID_32_" gradientUnits="userSpaceOnUse" x1="132.0067" y1="90.0287" x2="37.2029" y2="284.903">
			<stop  offset="0" style="stop-color:#FFFFFF"/>
			<stop  offset="1" style="stop-color:#FFFFFF"/>
		</linearGradient>
		<path class="st36" d="M89.4,39.8l69.8-1.6c2,0,3.7,1.4,4.1,3.4l15,94.5c0.4,2.4-1.4,4.6-3.9,4.6l-77.4,1.9
			c-2.1,0.1-3.9-1.6-4.1-3.7l-7.5-94.8C85.3,41.8,87.1,39.8,89.4,39.8z"/>
		<g>
			<linearGradient id="SVGID_33_" gradientUnits="userSpaceOnUse" x1="189.6696" y1="10.4804" x2="91.0698" y2="148.25">
				<stop  offset="0" style="stop-color:#FDF53F"/>
				<stop  offset="1" style="stop-color:#D93C65"/>
			</linearGradient>
			<path class="st37" d="M143,132.3c0,0-36.8,1.2-42.9-21.6c-4.9-18.4,9.8,0.3,26.8,11.6c1.3,0.9,2.7-1,1.5-2
				c-12.4-9.8-30.2-25.8-27.2-34.4c4.5-13.1,5.8-5.9,17.8,9c12,14.9,17.9,14.3,11.4,3.3c-6.6-11-25-20.7-23.9-28.2
				c1.1-7.5,8-17.6,10.4-22.5c2.4-4.9,25.7,8.1,25.7,17.7c0,9.7-7,24.2-3.2,32c3.7,7.8,7.2-7.8,8.3-16.5c1.2-8.7,3.3-13.8,9.7-4.9
				c6.4,8.9,0.9,22.3-5.5,30c-6.3,7.7-7.6,14.3-4.2,10.8c3.4-3.5,12.9-15.3,13.8-20.9C162.3,90,175.6,111.6,143,132.3z"/>
			<path class="st38" d="M141.4,131c-0.1,0-0.2-0.2-0.2-0.3c-1.4-28.2-16.5-63.1-16.7-63.5c-0.1-0.2,0-0.4,0.2-0.4
				c0.2-0.1,0.4,0,0.4,0.2c0.2,0.4,15.3,35.4,16.7,63.7c0,0.2-0.1,0.3-0.3,0.3C141.5,131.1,141.5,131.1,141.4,131z"/>
		</g>
	</g>
	<g>
		<g>
			
				<linearGradient id="SVGID_34_" gradientUnits="userSpaceOnUse" x1="96.3115" y1="78.9911" x2="104.1941" y2="78.9911" gradientTransform="matrix(0.9997 -2.250000e-02 2.250000e-02 0.9997 136.4615 -7.7916)">
				<stop  offset="0" style="stop-color:#F9B776"/>
				<stop  offset="1" style="stop-color:#F47960"/>
			</linearGradient>
			<path class="st39" d="M236.8,61c-4.1,5.6-2.9,11.7,5.3,15.8c0.6-0.5,0.7-1,0.2-2.1c-6.5-4.7-5.5-9-1.5-11.7L236.8,61z"/>
			
				<linearGradient id="SVGID_35_" gradientUnits="userSpaceOnUse" x1="-609.7341" y1="76.9997" x2="-601.7809" y2="76.9997" gradientTransform="matrix(0.9904 -0.1381 0.1381 0.9904 836.9633 -89.5079)">
				<stop  offset="0" style="stop-color:#F9B776"/>
				<stop  offset="1" style="stop-color:#F47960"/>
			</linearGradient>
			<path class="st40" d="M245.3,63.6c-3.3,5.8-2.6,10.4,6.8,13.4c0.5-1.3,0.3-2.1-0.5-2.3c-7.1-3.6-5.3-6.4-1.8-9.4L245.3,63.6z"/>
			
				<linearGradient id="SVGID_36_" gradientUnits="userSpaceOnUse" x1="-5315.6992" y1="-2565.3821" x2="-5311.4653" y2="-2565.3821" gradientTransform="matrix(-0.5875 -0.8093 -0.8093 0.5875 -4945.2197 -2716.0781)">
				<stop  offset="0" style="stop-color:#2C759E"/>
				<stop  offset="1" style="stop-color:#051042"/>
			</linearGradient>
			<path class="st41" d="M252.1,74.9c0.3,1.1,0.1,1.7-0.7,1.9c-0.5,1.8-0.2,2.9,0.6,3.3c1.1-1.6,1.9-3.2,2.2-5.1
				C253.4,74.7,252.3,74.4,252.1,74.9z"/>
			
				<linearGradient id="SVGID_37_" gradientUnits="userSpaceOnUse" x1="-5309.6553" y1="-2557.5015" x2="-5305.4468" y2="-2557.5015" gradientTransform="matrix(-0.5875 -0.8093 -0.8093 0.5875 -4945.2197 -2716.0781)">
				<stop  offset="0" style="stop-color:#2C759E"/>
				<stop  offset="1" style="stop-color:#051042"/>
			</linearGradient>
			<path class="st42" d="M242.2,74.7c0.3,1.1,0.1,1.7-0.7,1.9c-0.5,1.8-0.2,2.8,0.6,3.2c1.1-1.5,1.9-3.2,2.2-5.1
				C243.5,74.4,242.4,74.2,242.2,74.7z"/>
			
				<linearGradient id="SVGID_38_" gradientUnits="userSpaceOnUse" x1="1504.1698" y1="-169.0107" x2="1521.0646" y2="-169.0107" gradientTransform="matrix(0.9786 0.2059 -0.2059 0.9786 -1270.0303 -87.7964)">
				<stop  offset="0" style="stop-color:#7C27DD"/>
				<stop  offset="1" style="stop-color:#2B41D9"/>
			</linearGradient>
			<path class="st43" d="M254,53.1c0.6,3.8-1.1,8.6-4.1,12.6c-2.1,0.2-4.4,0-6.2-1.1l2.3-5.1l-1.1-0.3l-4.4,4.5
				c-2,0.3-3.3-0.7-4.9-1.7c1.7-3.8,5.7-5.6,6.7-10.9L254,53.1z"/>
		</g>
		<g>
			<linearGradient id="SVGID_39_" gradientUnits="userSpaceOnUse" x1="232.7325" y1="23.2916" x2="226.2367" y2="38.0388">
				<stop  offset="0" style="stop-color:#FDF53F"/>
				<stop  offset="0.8418" style="stop-color:#DF595F"/>
				<stop  offset="1" style="stop-color:#D93C65"/>
			</linearGradient>
			<path class="st44" d="M232.4,33.1c0,0,2.3-2.4,0.2-4.6c-2.1-2.2-3.6-0.8-5.3-2.8C227.4,25.7,226.9,31.4,232.4,33.1z"/>
			<linearGradient id="SVGID_40_" gradientUnits="userSpaceOnUse" x1="273.9765" y1="-8.4574" x2="223.8046" y2="31.4431">
				<stop  offset="0" style="stop-color:#FDF53F"/>
				<stop  offset="1" style="stop-color:#D93C65"/>
			</linearGradient>
			<path class="st45" d="M231.3,27.3c0.1,0,0.8,0.1,0.9,0.5c0.1,0.4-0.3,0.6-1.2,0.3c-0.9-0.2-1.2,0.3-0.6,1c0.6,0.7,0,1-0.7,0.5
				c-0.7-0.6-0.8-0.3-0.6,0.3c0.2,0.6-0.7,0.8-1.2,0c-0.5-0.7-1.2-2.5-1-4.4c0-0.2,0.3-0.3,0.4-0.2C227.8,25.8,229,26.6,231.3,27.3z
				"/>
			<path class="st46" d="M232.5,32.2c0.2-0.3,0.3-0.6,0.4-0.9c0.1-0.3,0.1-0.6,0-0.9c0-0.1,0-0.2-0.1-0.2l0-0.1l0-0.1
				c0-0.1-0.1-0.1-0.1-0.2l-0.1-0.2c0-0.1-0.1-0.1-0.1-0.2l-0.1-0.2c-0.1-0.1-0.2-0.2-0.3-0.3l0,0c-0.1-0.1-0.1-0.3,0-0.4
				c0.1-0.1,0.3-0.1,0.4,0c0,0,0,0,0,0c0.1,0.1,0.2,0.3,0.3,0.4l0.1,0.2c0,0.1,0.1,0.2,0.1,0.2l0.1,0.2c0,0.1,0,0.2,0.1,0.3l0,0.1
				l0,0.1c0,0.1,0,0.2,0,0.3c0,0.3-0.1,0.7-0.2,1C232.9,31.6,232.7,31.9,232.5,32.2z"/>
			<g>
				
					<linearGradient id="SVGID_41_" gradientUnits="userSpaceOnUse" x1="-2852.2815" y1="-241.3764" x2="-2857.8516" y2="-252.3692" gradientTransform="matrix(-0.9338 -0.3577 -0.3577 0.9338 -2521.0249 -743.3909)">
					<stop  offset="0" style="stop-color:#CB236D"/>
					<stop  offset="1" style="stop-color:#4C246D"/>
				</linearGradient>
				<path class="st47" d="M234.9,36.7c3.5,6.4,5.1,11.8,5.6,13.9c0.1,0.3-0.3,0.5-0.5,0.3c-4.6-4.5-6.5-9.4-7.4-12.8
					C233.5,37.1,234.3,36.8,234.9,36.7z"/>
				
					<linearGradient id="SVGID_42_" gradientUnits="userSpaceOnUse" x1="-2852.6921" y1="-257.7124" x2="-2848.8467" y2="-257.7124" gradientTransform="matrix(-0.9338 -0.3577 -0.3577 0.9338 -2521.0249 -743.3909)">
					<stop  offset="0" style="stop-color:#53D8FF"/>
					<stop  offset="1" style="stop-color:#3840F7"/>
				</linearGradient>
				<path class="st48" d="M232.6,32.9c0.8,1.3,1.6,2.5,2.3,3.8c-0.6,0.1-1.4,0.4-2.2,1.4c-0.7-2.9-0.6-4.8-0.6-4.8
					C232.2,32.8,232.6,32.9,232.6,32.9z"/>
			</g>
		</g>
		<g>
			<linearGradient id="SVGID_43_" gradientUnits="userSpaceOnUse" x1="234.3643" y1="46.1709" x2="247.2023" y2="38.5998">
				<stop  offset="0" style="stop-color:#CB236D"/>
				<stop  offset="0.8815" style="stop-color:#5B246D"/>
				<stop  offset="1" style="stop-color:#4C246D"/>
			</linearGradient>
			<path class="st49" d="M244.7,37c-1-0.5-6.6,5.5-5.8,6c-0.7,0.4,2.7,2.3,3.4,1.8C242.6,44.6,244.7,37,244.7,37z"/>
			<linearGradient id="SVGID_44_" gradientUnits="userSpaceOnUse" x1="239.5674" y1="35.3924" x2="258.8471" y2="57.8306">
				<stop  offset="0" style="stop-color:#CB236D"/>
				<stop  offset="1" style="stop-color:#4C246D"/>
			</linearGradient>
			<path class="st50" d="M254.8,37.3c-0.2-0.3-0.5-0.5-0.7-0.7c-1.4-1-3.5-0.5-5.1-0.6c-0.6,0-1.4-0.2-2-0.1
				c-1.1,0.4-2.4,0.7-3.3,1.5c-1.3,1.2-1.5,2.9-1.7,4.5c-0.3,2-0.3,3.8-0.3,5.9c0,1.9,0,3.8,0,5.6c3.1,3.3,8,4.1,14.6,1
				c-0.1-2.9-0.2-5.8-0.1-8.8c0.1-2.5,0.6-4.5-0.5-6.9C255.4,38.4,255.1,37.8,254.8,37.3z"/>
		</g>
		<g>
			<g>
				<linearGradient id="SVGID_45_" gradientUnits="userSpaceOnUse" x1="246.4488" y1="48.3349" x2="256.1212" y2="48.3349">
					<stop  offset="0" style="stop-color:#F9B776"/>
					<stop  offset="1" style="stop-color:#F47960"/>
				</linearGradient>
				<path class="st51" d="M247.1,54.6c1.1,0.9,9.4-8.9,9-9.6l-3.4-3.1c-1.6,4.6-3.6,8.4-6.3,10.5L247.1,54.6z"/>
				<g>
					<linearGradient id="SVGID_46_" gradientUnits="userSpaceOnUse" x1="239.3774" y1="51.3202" x2="207.6006" y2="95.8252">
						<stop  offset="0" style="stop-color:#53D8FF"/>
						<stop  offset="1" style="stop-color:#3840F7"/>
					</linearGradient>
					<path class="st52" d="M248.4,58.1l-3.9-13.5c0-0.2-0.2-0.3-0.3-0.3c-0.7-0.1-2.7-0.3-5.1-0.5c-2.8-0.2-6.1-0.4-8-0.3
						c-0.3,0-0.4,0.3-0.3,0.6c1.1,2.2,5.7,11.4,8,14.4c0.1,0.1,0.2,0.2,0.3,0.2l8.9-0.1C248.2,58.6,248.4,58.3,248.4,58.1z"/>
					
						<linearGradient id="SVGID_47_" gradientUnits="userSpaceOnUse" x1="6772.7729" y1="36.6157" x2="6770.8433" y2="45.0906" gradientTransform="matrix(-1 0 0 1 7008.6904 0)">
						<stop  offset="0" style="stop-color:#53D8FF"/>
						<stop  offset="1" style="stop-color:#3840F7"/>
					</linearGradient>
					<path class="st53" d="M238.7,42.7l-2.8-0.5c-0.1,0-0.3,0.1-0.2,0.3l0.3,0.8c0,0.1,0.1,0.1,0.2,0.1l2.7,0.4
						c0.1,0,0.3-0.1,0.2-0.2l-0.2-0.7C238.9,42.7,238.8,42.7,238.7,42.7z"/>
					
						<linearGradient id="SVGID_48_" gradientUnits="userSpaceOnUse" x1="6771.7632" y1="40.1707" x2="6770.8403" y2="45.7088" gradientTransform="matrix(-1 0 0 1 7008.6904 0)">
						<stop  offset="0" style="stop-color:#53D8FF"/>
						<stop  offset="1" style="stop-color:#3840F7"/>
					</linearGradient>
					<path class="st54" d="M240.8,45l-0.2-1.2c0-0.1-0.1-0.2-0.2-0.2l-5.6-0.6c-0.2,0-0.3,0.2-0.3,0.3l0.4,1.5
						c0,0.1,0.1,0.2,0.3,0.2l5.5,0.3C240.7,45.4,240.8,45.2,240.8,45z"/>
					
						<linearGradient id="SVGID_49_" gradientUnits="userSpaceOnUse" x1="6760.8901" y1="52.5564" x2="6766.0244" y2="52.5564" gradientTransform="matrix(-1 0 0 1 7008.6904 0)">
						<stop  offset="0" style="stop-color:#F9B776"/>
						<stop  offset="1" style="stop-color:#F47960"/>
					</linearGradient>
					<path class="st55" d="M247.4,54.8c0,0,0.5-2.2,0.3-3c-0.2-0.8-0.6-1.8-2-1.6c-1.4,0.2-3,0.8-3,0.8s0.1,1,1.1,0.7l-0.7,0.5
						c0,0,0.1,0.8,1,0.4l-0.6,0.7c0,0,0.4,0.7,1,0.2C245.2,53.2,245.6,55.1,247.4,54.8z"/>
				</g>
			</g>
			<linearGradient id="SVGID_50_" gradientUnits="userSpaceOnUse" x1="244.8291" y1="30.8684" x2="264.119" y2="53.3184">
				<stop  offset="0" style="stop-color:#CB236D"/>
				<stop  offset="1" style="stop-color:#4C246D"/>
			</linearGradient>
			<path class="st56" d="M251.6,43.9c1,1,2.7,1.5,5.1,1.6c0.6-4.8-0.5-7.8-3.1-9.2C252.4,39.4,251.6,42,251.6,43.9z"/>
			<path class="st8" d="M251.6,44C251.6,44,251.6,44,251.6,44C251.5,44,251.5,44,251.6,44c0-2.3,0.6-4.5,1.5-6.7c0,0,0.1-0.1,0.1,0
				c0,0,0.1,0.1,0,0.1C252.3,39.6,251.7,41.8,251.6,44C251.6,44,251.6,44,251.6,44z"/>
		</g>
		<g>
			<linearGradient id="SVGID_51_" gradientUnits="userSpaceOnUse" x1="259.7372" y1="22.6759" x2="248.2139" y2="35.6479">
				<stop  offset="0" style="stop-color:#F9B776"/>
				<stop  offset="1" style="stop-color:#F47960"/>
			</linearGradient>
			<path class="st57" d="M252,30.8v5.8c-1.3,0.9-3.3,0.9-5,0.1l0.7-5.9H252z"/>
			<linearGradient id="SVGID_52_" gradientUnits="userSpaceOnUse" x1="241.8517" y1="31.8804" x2="258.8812" y2="18.2744">
				<stop  offset="0" style="stop-color:#F9B776"/>
				<stop  offset="1" style="stop-color:#F47960"/>
			</linearGradient>
			<path class="st58" d="M241.4,28c-0.1,0.8-0.1,1.5,0,2.1c0.2,2.7,2.6,4.8,5.3,4.8c3.3,0,6-3.2,6-7.1c0-3.9-2.7-7.1-6-7.1
				C243,20.8,241.7,24.7,241.4,28z"/>
			<linearGradient id="SVGID_53_" gradientUnits="userSpaceOnUse" x1="241.0033" y1="24.8073" x2="258.052" y2="24.8073">
				<stop  offset="0" style="stop-color:#2B3582"/>
				<stop  offset="1" style="stop-color:#150E42"/>
			</linearGradient>
			<path class="st59" d="M252.3,30.2c-0.7,0.9,0.1,1.8,1,2.1c1.1,0.3,2.8-0.6,3.5-1.5c1.3-1.5,1.3-3.8,1.2-5.8c0-0.5-0.1-1-0.4-1.4
				c-0.3-0.3-0.7-0.5-1-0.9c-0.2-0.3-0.2-0.6-0.3-0.9c-0.3-1.2-1-2.3-2.1-2.9c-1.1-0.6-2.5-0.6-3.6,0.1c-1.1-1-2.6-1.7-4.1-1.7
				c-1.5,0.1-3.1,1-3.6,2.4c-0.1,0.3-0.2,0.6-0.4,0.7c-0.1,0.1-0.2,0.1-0.4,0.2c-0.6,0.2-1,0.9-1,1.6c0,0.7,0.8,1.3,0.4,2
				c-0.6,0.8-0.6,2.3,0.1,3c0.2-0.4,0.4-0.9,0.6-1.3c0.2-0.5,0.2-1.2,0.5-1.6c0,0,1.3,0.4,1.5,0.4c0.4-0.1,0.5-0.2,0.7-0.5
				c0.6-0.6,1.3-1.4,1.8-0.3c0.2,0.4,0.7,0.7,1.2,0.6c-0.4,0.6-0.3,1.4,0.1,1.9c0.4,0.6,0.9,1,1.5,1.4c0.4,0.3,0.9,0.6,1.3,1
				c0.6,0.4,1.3,0.8,1.9,0.6C252.9,29.6,252.5,29.9,252.3,30.2z"/>
			<linearGradient id="SVGID_54_" gradientUnits="userSpaceOnUse" x1="245.3687" y1="36.2823" x2="262.3982" y2="22.6762">
				<stop  offset="0" style="stop-color:#F9B776"/>
				<stop  offset="1" style="stop-color:#F47960"/>
			</linearGradient>
			<path class="st60" d="M254.2,30.2c-0.4,0.6-1.1,1.1-1.8,1.5c-0.2,0.1-0.4,0.2-0.6,0.2c-0.9,0,0.3-2.2,0.5-2.4
				c0.2-0.2,0.5-0.4,0.8-0.5c0.3-0.1,0.6-0.2,0.9,0C254.8,29.2,254.5,29.8,254.2,30.2z"/>
		</g>
	</g>
	<g>
		<g>
			<linearGradient id="SVGID_55_" gradientUnits="userSpaceOnUse" x1="168.4321" y1="168.0871" x2="256.1702" y2="184.0774">
				<stop  offset="0" style="stop-color:#18459F"/>
				<stop  offset="0.9901" style="stop-color:#2874B5"/>
			</linearGradient>
			<path class="st61" d="M266.4,170c2.1,0.5,3.7,1.6,4.9,3.4c0.3,0.5,0.6,0.9,0.7,1.5c0.1,0.3,0.2,0.7,0.2,1
				c0.5,4.4-2.8,7.8-6.5,9.7c-4.9,2.5-10.1,2.4-15.4,2.7c-5.4,0.4-10.9,0.7-16.3,1c-4.7,0.3-9.5,0.5-14.2,0.7
				c-2.7,0.1-5.5,0.2-8.2,0.3c-2.6,0.1-5.5,0.4-8.1,0.1c0.9-2.4,0.8-5.9,0.8-8.5c0-1.9-0.1-3.9-0.3-5.8c-0.1-0.9-0.8-4.3-0.1-4.8
				c0.2-0.2,0.6-0.3,1-0.3c0.8,0,1.7,0.1,2.2,0.1c1.4,0,2.7-0.1,4.1-0.1c2.7,0,5.4,0,8.1,0c10.7,0.2,21.6,0.2,32.1,2.5
				c0.4,0.1,5.5,1,5.4,0.9c-0.3-1.2,0.6-2.3,1.6-3C260.9,170,263.8,169.4,266.4,170z"/>
			<linearGradient id="SVGID_56_" gradientUnits="userSpaceOnUse" x1="256.1008" y1="165.6834" x2="277.112" y2="187.8737">
				<stop  offset="0" style="stop-color:#18459F"/>
				<stop  offset="0.9901" style="stop-color:#2874B5"/>
			</linearGradient>
			<path class="st62" d="M272.3,178.3c-0.3,0.9-0.6,2.1-1.3,2.8c0.1-0.2,0.1-0.4,0.2-0.6c0.2-1.5,0-3.2-0.5-4.6
				c-0.7-2.1-2.2-3.2-4.1-4.1c-1.2-0.5-2.4-0.8-3.7-0.8s-2.5,0.6-3.3,1.6c-0.6,0.8-0.9,2.3,0,3c0.8,0.6,2.7,0.7,3.4-0.2
				c0.1-0.1,0.2-0.2,0.3-0.2c0.1,0.2,0,0.4-0.1,0.6c-0.4,0.6-1,1.1-1.7,1.3c-1,0.4-2.3,0.5-3.2-0.1c-0.7-0.5-1.1-1.4-1.2-2.3
				c-0.1-2.6,2-4.6,4.4-5.1c1.6-0.3,3.2-0.2,4.8,0.1c2.6,0.4,5,1.6,5.8,4.3c0.1,0.3,0.2,0.6,0.3,0.9
				C272.6,176,272.6,177.1,272.3,178.3z"/>
			<linearGradient id="SVGID_57_" gradientUnits="userSpaceOnUse" x1="279.6223" y1="107.4027" x2="227.7291" y2="179.1613">
				<stop  offset="0" style="stop-color:#FDF53F"/>
				<stop  offset="1" style="stop-color:#D93C65"/>
			</linearGradient>
			<path class="st63" d="M236.2,175.1c-0.3-1.2-0.8-2.4-1.5-3.5c-5.1-0.3-10.2-0.3-15.3-0.4c-0.5,0-1.1,0-1.6,0
				c0.2,0.6,0.5,1.2,0.8,1.8c2,4.7,1.1,10.3,0.7,15.4c-0.1,0.6-0.1,1.1-0.3,1.7c0.3,0,0.6,0,0.8,0c4.7-0.2,9.5-0.4,14.2-0.7
				c0.7,0,1.4-0.1,2.2-0.1C237.2,184.6,237.3,179.8,236.2,175.1z"/>
		</g>
		<g>
			<linearGradient id="SVGID_58_" gradientUnits="userSpaceOnUse" x1="208.1886" y1="174.8144" x2="187.3844" y2="203.9139">
				<stop  offset="0" style="stop-color:#53D8FF"/>
				<stop  offset="1" style="stop-color:#3840F7"/>
			</linearGradient>
			<ellipse class="st64" cx="203.9" cy="180.8" rx="1.7" ry="9.7"/>
			<g>
				<linearGradient id="SVGID_59_" gradientUnits="userSpaceOnUse" x1="201.3075" y1="176.3127" x2="192.5253" y2="190.2117">
					<stop  offset="0" style="stop-color:#2B3582"/>
					<stop  offset="1" style="stop-color:#150E42"/>
				</linearGradient>
				<path class="st65" d="M199.1,180.8c0,1.9-0.3,3.4-0.7,3.4c-0.4,0-0.7-1.5-0.7-3.4s0.3-3.4,0.7-3.4
					C198.8,177.4,199.1,178.9,199.1,180.8z"/>
				<linearGradient id="SVGID_60_" gradientUnits="userSpaceOnUse" x1="240.1423" y1="97.9805" x2="191.0691" y2="195.6409">
					<stop  offset="0" style="stop-color:#FDF53F"/>
					<stop  offset="1" style="stop-color:#D93C65"/>
				</linearGradient>
				<path class="st66" d="M192.9,177.2c-0.6,0.1-1.2,0.3-1.7,0.6c-2.2,1-4.5,2.5-5.3,4.8c-0.4,1.1-0.5,2.3-0.7,3.4
					c-0.3,2.1-0.2,4.3-2.2,5.4c-2.4,1.3-4.9,2.4-7.4,3.6c-0.5,0.3-1.1,0.6-1.3,1.1c-0.2,0.5,0,1,0.2,1.4c0.6,1.4,1.8,2.6,3.2,3.2
					c2.8,1.3,6.5-0.4,9.5-0.1c1.9,0.2,3.7,1,5.6,1.5c3.4,1,7,1.2,10.4,0.6c0.5-0.1,1-0.2,1.3-0.6c0.5-0.6,0.2-1.5-0.4-2
					s-1.3-0.6-2.1-0.8c-1.9-0.3-3.7-0.7-5.6-1c-1.7-0.3-3.1-1-2.6-2.9c0.2-0.7,0.8-1.2,0.8-2c0-0.9-0.7-1.5-1.1-2.2
					c-0.6-1,0.2-3.3,0.5-4.4c0.7-2.8,2.9-3.2,5.4-3.8c0.4-0.1,0.8-0.2,1.1-0.6c0.9-1.1,0.3-3.5-0.8-4.4
					C197.9,176.8,195.1,176.7,192.9,177.2z"/>
				<linearGradient id="SVGID_61_" gradientUnits="userSpaceOnUse" x1="204.7279" y1="174.4858" x2="192.4491" y2="193.9189">
					<stop  offset="0" style="stop-color:#53D8FF"/>
					<stop  offset="1" style="stop-color:#3840F7"/>
				</linearGradient>
				<path class="st67" d="M203,177.4l-4.4,0c0.9,2.1,0.8,4.4,0,6.8l4.3,0C203.7,182,203.8,179.7,203,177.4z"/>
			</g>
			<linearGradient id="SVGID_62_" gradientUnits="userSpaceOnUse" x1="199.2884" y1="180.8371" x2="189.2903" y2="178.2192">
				<stop  offset="0" style="stop-color:#53D8FF"/>
				<stop  offset="1" style="stop-color:#3840F7"/>
			</linearGradient>
			<path class="st68" d="M198.5,177.4c0.9,2.1,0.9,4.3,0,6.8h1.5c0.7-2.3,0.7-4.5,0-6.8H198.5z"/>
		</g>
	</g>
	<g>
		<g>
			<linearGradient id="SVGID_63_" gradientUnits="userSpaceOnUse" x1="221.0525" y1="156.0412" x2="164.6782" y2="195.029">
				<stop  offset="0" style="stop-color:#F9B776"/>
				<stop  offset="0.2906" style="stop-color:#F47960"/>
			</linearGradient>
			<path class="st69" d="M217.8,149.3c-0.3,6.9,0.1,13.9,1,21.3h-1.6c-1.8-7.3-3-14.7-3.8-22.1L217.8,149.3z"/>
			<linearGradient id="SVGID_64_" gradientUnits="userSpaceOnUse" x1="218.7456" y1="155.419" x2="275.8921" y2="148.0453">
				<stop  offset="0" style="stop-color:#F9B776"/>
				<stop  offset="0.2906" style="stop-color:#F47960"/>
			</linearGradient>
			<path class="st70" d="M220.2,149.4c1,9.7,3.9,14.6,11.4,7.8c0.3-0.9,0.2-1.7-0.9-2c-4.8,4-6.3,2.6-6.9-5.7H220.2z"/>
			<linearGradient id="SVGID_65_" gradientUnits="userSpaceOnUse" x1="237.8685" y1="147.1434" x2="227.7341" y2="165.3853">
				<stop  offset="9.852219e-02" style="stop-color:#CB236D"/>
				<stop  offset="0.936" style="stop-color:#4C246D"/>
			</linearGradient>
			<path class="st71" d="M230.4,155.2c1.1,0.5,1.5,0.9,1.2,1.8c1.3,1.6,2.3,2,3.2,1.5c-0.7-1.9-1.6-3.6-3.1-5
				C231,154,230.1,154.8,230.4,155.2z"/>
			<linearGradient id="SVGID_66_" gradientUnits="userSpaceOnUse" x1="232.0898" y1="140.5019" x2="175.4709" y2="167.8896">
				<stop  offset="0" style="stop-color:#CB236D"/>
				<stop  offset="1" style="stop-color:#4C246D"/>
			</linearGradient>
			<path class="st72" d="M213.2,141.8c-1.1,2.8-2,5.5-2.2,7.3c3.1,2.5,8.7,2.7,15.3,2c0.1-2.2,0-4.6-0.4-7.1L213.2,141.8z"/>
			<linearGradient id="SVGID_67_" gradientUnits="userSpaceOnUse" x1="220.7593" y1="166.1654" x2="212.5166" y2="174.5432">
				<stop  offset="9.852219e-02" style="stop-color:#CB236D"/>
				<stop  offset="0.936" style="stop-color:#4C246D"/>
			</linearGradient>
			<path class="st73" d="M218.7,168.9c-0.5,0.5-1.1,0.6-1.9,0.3c-2.3,0.1-3.5,0.8-3.5,2c1.7,0.5,3.7,0.4,5.7,0
				C219.4,170.6,219.2,169.8,218.7,168.9z"/>
		</g>
		<linearGradient id="SVGID_68_" gradientUnits="userSpaceOnUse" x1="197.3098" y1="88.7885" x2="237.9412" y2="147.1142">
			<stop  offset="9.852219e-02" style="stop-color:#CB236D"/>
			<stop  offset="0.936" style="stop-color:#4C246D"/>
		</linearGradient>
		<path class="st74" d="M227.1,114.7c-0.1-0.2-0.2-0.4-0.2-0.6c-2.2-4.8-9.1-7.3-12.6-2.3c-0.4,0.5-0.6,1.2-0.8,1.8
			c-1.5,3.9-5.2,11.3-0.4,14.2c1.8,1.1,3.5,2.1,5,3.7c1.8,2,3.3,4.2,4.8,6.4c0.9,1.3,1.9,2.7,3.3,3.5c3.1,1.8,7.4,0.3,9.6-2.6
			c0.6-0.8,1.1-1.6,1.3-2.6c0.1-0.6,0-1.3-0.2-1.9c-1.2-3.8-5.5-5.8-7.4-9.3C227.8,121.9,228.3,118,227.1,114.7z"/>
		<g>
			<linearGradient id="SVGID_69_" gradientUnits="userSpaceOnUse" x1="209.0782" y1="128.2563" x2="219.0852" y2="165.6511">
				<stop  offset="0" style="stop-color:#A737D5"/>
				<stop  offset="1" style="stop-color:#EF497A"/>
			</linearGradient>
			<path class="st75" d="M201.7,126.8c3.8,0.9,8.6,0.3,14.5-2l0.3,5.4c-5.5,1.6-10.7,1.5-15.3-1.6L201.7,126.8z"/>
			<linearGradient id="SVGID_70_" gradientUnits="userSpaceOnUse" x1="169.513" y1="91.9617" x2="232.4522" y2="147.0005">
				<stop  offset="0" style="stop-color:#A737D5"/>
				<stop  offset="1" style="stop-color:#EF497A"/>
			</linearGradient>
			<path class="st76" d="M214.1,126c0.7-1.4,3.1-1.5,4.5-1.6c1.9-0.1,3.5,0.1,4.8,1.8c0.2,0.3,0.4,0.6,0.6,0.9c0.8,1.2,1,3,1.4,4.4
				c0.8,2.7,1.6,5.4,2.3,8.2c0.1,0.4,1.3,4.1,0.8,4.4c-1.1,3.8-12.7,2.5-16.3-1.9C212.5,135.7,212.9,128.8,214.1,126z"/>
		</g>
		<g>
			<linearGradient id="SVGID_71_" gradientUnits="userSpaceOnUse" x1="236.9658" y1="104.4514" x2="214.9765" y2="126.9673">
				<stop  offset="0" style="stop-color:#F9B776"/>
				<stop  offset="1" style="stop-color:#F47960"/>
			</linearGradient>
			<path class="st77" d="M216,121.5l0.8,4.3c1.7,1,3.2,0.6,4.3-0.8l-0.8-4.7L216,121.5z"/>
			<linearGradient id="SVGID_72_" gradientUnits="userSpaceOnUse" x1="220.2516" y1="114.4663" x2="200.7642" y2="146.7259">
				<stop  offset="0" style="stop-color:#F9B776"/>
				<stop  offset="1" style="stop-color:#F47960"/>
			</linearGradient>
			<path class="st78" d="M223.3,117.2c0.2,0.2,0.6,0.6,0.6,1c0,0.6-0.1,1.2-0.5,1.7c-0.1,0.2-0.3,0.3-0.5,0.4
				c-0.2,0.1-0.4,0-0.6,0.1c-0.6,0.1-1,0.8-1.4,1.2c-0.5,0.5-1,0.9-1.7,1.2c-1.3,0.6-2.9,0.5-4-0.4c-1.4-1.1-2-3-2-4.8
				c0-2.2,1-4.5,3-5.5c2-0.9,4.5,0.4,5.4,2.3c0.3,0.7,0.5,1.4,0.9,2C222.8,116.6,223.1,116.9,223.3,117.2z"/>
			<linearGradient id="SVGID_73_" gradientUnits="userSpaceOnUse" x1="199.8865" y1="86.9936" x2="240.5177" y2="145.3191">
				<stop  offset="9.852219e-02" style="stop-color:#CB236D"/>
				<stop  offset="0.936" style="stop-color:#4C246D"/>
			</linearGradient>
			<path class="st79" d="M216.6,114.9c0.1,0.2,0.4,0.3,0.7,0.3c1,0.1,1.8-0.6,2.8-0.7c0.5-0.1,0.4,0.3,0.6,0.6
				c0.2,0.5,0.7,0.5,1.1,0.7c0.3,0.1,0.5,0.4,0.6,0.6c0.5,0.7-0.1,1.4-0.1,2.2c0,0,0,0,0,0.1c0,0.1,0.9-0.4,1-0.5
				c0.4-0.2,0.8-0.5,0.9-1c0.1-0.3,0.1-0.7,0-1c-0.4-1.5-1.5-2.9-2.7-3.9c-1.1-1-2.5-1.3-4-1.3c-0.9,0-1.8,0.3-2.5,0.7
				c-0.5,0.4-1.6,1.4-1,2.1c0.7,0.8,2.2,0.3,3,0.2c0,0.2-0.2,0.3-0.3,0.5C216.6,114.6,216.6,114.8,216.6,114.9z"/>
		</g>
		<g>
			<g>
				<linearGradient id="SVGID_74_" gradientUnits="userSpaceOnUse" x1="151.533" y1="85.3751" x2="192.088" y2="127.2469">
					<stop  offset="0" style="stop-color:#FDF53F"/>
					<stop  offset="1" style="stop-color:#D93C65"/>
				</linearGradient>
				<path class="st80" d="M180.5,113.2c-0.1,1.3-0.6,2.4-1.9,3c-3.5,1.5-9.2-1.6-11.8-3.8c-3.5-3-6.7-6.9-7.6-11.6
					c-0.3-1.6-0.4-3.3-0.4-5c-0.1-3.2-0.8-6.4,0.4-9.5c0.6,1.7,1.4,3.3,2.6,4.7c2.4,2.6,6.5,3.4,9.7,4.7c1,0.4,2,0.9,2.8,1.6
					c1,0.8,1.8,1.8,2.4,2.8c1.9,2.8,3.1,6,3.6,9.4C180.4,110.6,180.6,112,180.5,113.2z"/>
				<linearGradient id="SVGID_75_" gradientUnits="userSpaceOnUse" x1="164.9889" y1="80.0547" x2="174.9959" y2="124.5598">
					<stop  offset="0" style="stop-color:#FDF53F"/>
					<stop  offset="1" style="stop-color:#D93C65"/>
				</linearGradient>
				<path class="st81" d="M180.2,109.5c-0.4-2.3-1.1-4.6-2.1-6.7c0.1,2.3,0.3,4.5,0.3,6.8c-1.4,0-2.1-2-2.7-3
					c0.1,1.3,1.1,2.5,0.7,3.8c-1.6-1.4-3-3-4.4-4.7c0.3,2.3,1.7,4.1,2.8,6.2c0.1,0.2,0,0.4,0,0.7c-2.5-1.2-4.7-2.8-6.4-4.9
					c0.2,1.4,1.6,2.5,1.5,4c-0.1,0.1-0.3,0.1-0.5,0.1c-2.4-1-4.6-2.5-6.8-3.7c1.2,1.6,2.6,3,4.1,4.3c2.6,2.2,8.3,5.3,11.8,3.8
					c1.3-0.6,1.8-1.7,1.9-3C180.6,112,180.4,110.6,180.2,109.5z"/>
				<linearGradient id="SVGID_76_" gradientUnits="userSpaceOnUse" x1="190.5877" y1="12.2952" x2="157.4065" y2="106.0455">
					<stop  offset="0" style="stop-color:#FDF53F"/>
					<stop  offset="1" style="stop-color:#D93C65"/>
				</linearGradient>
				<path class="st82" d="M158,94.2c-0.2-2.3-0.3-5,0.7-7.2c0.1-0.1,0.1-0.3,0.3-0.4c0.3-0.2,0.7,0,0.8,0.3c0.2,0.3,0.2,0.6,0.3,0.9
					c0.3,1.2,1.2,2.2,2.2,3c1.2,1,2.6,1.8,3.8,2.8c0.5,0.4,1,1,0.7,1.6c-0.3,0.5-1.1,0.5-1.4,1c-0.3,0.4,0,1.1-0.3,1.5
					c-0.2,0.3-0.6,0.4-1,0.4c-0.4,0-0.7-0.1-1.1,0c-0.1,0-0.2,0.1-0.3,0.2c-0.1,0.1,0,0.2,0,0.4c0.2,0.9,0.1,1.8-1,1.9
					c-1.1,0.2-1.3,0.5-1.8,1.6c-0.1,0.2-0.2,0.3-0.2,0.5c0,0.2,0,0.5,0,0.7c0.1,0.5,0,1-0.1,1.4c-0.1,0.3-0.7,0.7-0.9,0.3
					c-0.1-0.1,0-0.3,0-0.4c0.2-1,0.5-1.8,0.3-2.8c-0.1-0.9-0.5-1.8-0.7-2.7c-0.2-0.8,0-1.3-0.1-2.1C158.3,96,158.1,95.1,158,94.2z"
					/>
				
					<linearGradient id="SVGID_77_" gradientUnits="userSpaceOnUse" x1="323.2952" y1="403.7906" x2="290.1148" y2="497.5386" gradientTransform="matrix(0.9848 -0.1738 0.1738 0.9848 -214.4188 -324.4018)">
					<stop  offset="0" style="stop-color:#FDF53F"/>
					<stop  offset="1" style="stop-color:#D93C65"/>
				</linearGradient>
				<path class="st83" d="M158.4,106.9c-0.1,0.1-0.1,0.3-0.2,0.4c-0.1,0.2-0.3,0.5-0.3,0.7c-0.1,0.4,0,1.4,0.3,1.7
					c0.2,0.1,0.4,0.3,0.6,0.3c1,0.1,1.2-0.9,1.1-1.7c0-0.3-0.2-0.6-0.3-0.8c-0.1-0.2-0.4-1.5-0.7-1.5c-0.3-0.1-0.3,0.4-0.4,0.6
					C158.5,106.6,158.5,106.7,158.4,106.9z"/>
			</g>
			<g>
				<linearGradient id="SVGID_78_" gradientUnits="userSpaceOnUse" x1="178.7894" y1="126.7306" x2="279.6499" y2="161.7553">
					<stop  offset="0" style="stop-color:#18459F"/>
					<stop  offset="0.9901" style="stop-color:#2874B5"/>
				</linearGradient>
				<path class="st84" d="M177.3,117c-0.5-2.9-0.7-3.4,2.7-4.1c26.7,13.7,51.1,32.5,76.5,52.6c1.4,1.1,0.1,3.2-1.7,1.8
					C224.6,151,196.8,136.1,177.3,117z"/>
				<linearGradient id="SVGID_79_" gradientUnits="userSpaceOnUse" x1="156.3202" y1="82.6468" x2="199.7719" y2="139.2657">
					<stop  offset="0" style="stop-color:#53D8FF"/>
					<stop  offset="1" style="stop-color:#3840F7"/>
				</linearGradient>
				<path class="st85" d="M188.2,117.2c-2.7-1.5-5.4-3-8.2-4.4c-3.3,0.7-3.2,1.2-2.7,4.1c1.9,1.8,3.8,3.6,5.8,5.4
					C185.3,121.4,187.2,119.5,188.2,117.2z"/>
			</g>
		</g>
		<g>
			<linearGradient id="SVGID_80_" gradientUnits="userSpaceOnUse" x1="209.6937" y1="139.5506" x2="246.9568" y2="139.5506">
				<stop  offset="0" style="stop-color:#F9B776"/>
				<stop  offset="1" style="stop-color:#F47960"/>
			</linearGradient>
			<path class="st86" d="M204.2,138.8c0,0.5,0.8,0.9,1.2,1.1c1,0.6,2.2,0.8,3.3,0.8c0.2,0,0.3,0,0.5,0c0.8,0,1.5-0.3,2.3-0.5
				c0.2,0,0.3-0.1,0.5-0.2c0.2-0.3-0.1-0.8-0.3-1c0-0.1-0.1-0.1-0.1-0.2c-0.1,0-0.1,0-0.2,0c-0.5,0-1,0.2-1.5,0.2
				c-0.3,0-0.6,0-0.8,0c-0.2,0-0.5,0-0.7,0c-0.6-0.1-1.1-0.5-1.7-0.6c0,0,0,0-0.1,0c-0.1,0-0.1,0.1,0,0.2c0,0.1,0.1,0.1,0.2,0.1
				c0.2,0.1,0.3,0.2,0.3,0.4c-1-0.3-2-0.4-3.1-0.5c0.2,0.2,0.3,0.4,0.5,0.6L204.2,138.8z"/>
			<linearGradient id="SVGID_81_" gradientUnits="userSpaceOnUse" x1="226.2479" y1="121.0025" x2="201.4937" y2="160.504">
				<stop  offset="0" style="stop-color:#A737D5"/>
				<stop  offset="1" style="stop-color:#EF497A"/>
			</linearGradient>
			<path class="st87" d="M210.4,138.8c3.7-1.6,7.2-5,10.6-10.5c2.8-2,3.6,0.4,2.8,4.2c-3.5,4.7-7.1,7.8-12.8,8.1
				C211.2,139.8,211,139.2,210.4,138.8z"/>
		</g>
	</g>
</g>
</svg>
