<?xml version="1.0" encoding="utf-8"?>
<!-- Generator: Adobe Illustrator 24.0.0, SVG Export Plug-In . SVG Version: 6.00 Build 0)  -->
<svg version="1.1" id="Capa_1" xmlns="http://www.w3.org/2000/svg" xmlns:xlink="http://www.w3.org/1999/xlink" x="0px" y="0px"
	 viewBox="0 0 360 78" style="enable-background:new 0 0 360 78;" xml:space="preserve">
<style type="text/css">
	.st0{fill:#FFFFFF;}
</style>
<g>
	<path class="st0" d="M115.2,28.8V28c0-1-0.2-1.8-0.7-2.6c-0.5-0.8-1.1-1.4-1.9-1.9c-0.8-0.5-1.7-0.7-2.7-0.7h-12
		c-0.9,0-1.8,0.2-2.6,0.7c-0.8,0.5-1.4,1.1-1.9,1.9c-0.5,0.8-0.7,1.7-0.7,2.6V31c0,0.9,0.2,1.8,0.7,2.6c0.5,0.8,1.1,1.4,1.9,1.9
		c0.8,0.5,1.7,0.7,2.6,0.7h11.8c0.1,0,0.2,0,0.3,0.1c0.1,0.1,0.1,0.2,0.1,0.3v2.6c0,0.1,0,0.2-0.1,0.3c-0.1,0.1-0.2,0.1-0.3,0.1
		H98.1c-0.1,0-0.2,0-0.3-0.1c-0.1-0.1-0.1-0.2-0.1-0.3v-0.7h-5v0.8c0,0.9,0.2,1.8,0.7,2.6c0.5,0.8,1.1,1.4,1.9,1.9
		c0.8,0.5,1.7,0.7,2.6,0.7h12c1,0,1.9-0.2,2.7-0.7c0.8-0.5,1.4-1.1,1.9-1.9c0.5-0.8,0.7-1.7,0.7-2.6v-3.1c0-1-0.2-1.8-0.7-2.6
		c-0.5-0.8-1.1-1.4-1.9-1.9c-0.8-0.5-1.7-0.7-2.7-0.7H98.1c-0.1,0-0.2,0-0.3-0.1c-0.1-0.1-0.1-0.2-0.1-0.3v-2.6c0-0.1,0-0.2,0.1-0.3
		c0.1-0.1,0.2-0.1,0.3-0.1h11.6c0.1,0,0.2,0,0.3,0.1c0.1,0.1,0.1,0.2,0.1,0.3v0.7H115.2z"/>
	<path class="st0" d="M132.7,27.7v-5h-8.6v-6.8h-5v23.7c0,0.9,0.2,1.8,0.7,2.6c0.5,0.8,1.1,1.4,1.9,1.9c0.8,0.5,1.7,0.7,2.6,0.7h8.4
		v-5h-8.2c-0.1,0-0.2,0-0.3-0.1c-0.1-0.1-0.1-0.2-0.1-0.3V27.7H132.7z"/>
	<path class="st0" d="M136.6,31.3v8.3c0,0.9,0.2,1.8,0.7,2.6c0.5,0.8,1.1,1.4,1.9,1.9c0.8,0.5,1.7,0.7,2.7,0.7h17.3V28
		c0-1-0.2-1.9-0.7-2.7c-0.5-0.8-1.1-1.4-1.9-1.9c-0.8-0.5-1.7-0.7-2.7-0.7h-17.3v5h17.1c0.1,0,0.2,0,0.3,0.1
		c0.1,0.1,0.1,0.2,0.1,0.3v3.1H136.6z M154.1,39.9H142c-0.1,0-0.2,0-0.3-0.1c-0.1-0.1-0.1-0.2-0.1-0.3v-3.6h12.5V39.9z"/>
	<path class="st0" d="M167.2,27.9c0.1-0.1,0.2-0.1,0.3-0.1h17v-5h-17.2c-0.9,0-1.8,0.2-2.6,0.7c-0.8,0.5-1.4,1.1-1.9,1.9
		c-0.5,0.8-0.7,1.7-0.7,2.6v11.6c0,0.9,0.2,1.8,0.7,2.6c0.5,0.8,1.1,1.4,1.9,1.9c0.8,0.5,1.7,0.7,2.6,0.7h17.3v-5h-17.1
		c-0.1,0-0.2,0-0.3-0.1c-0.1-0.1-0.1-0.2-0.1-0.3V28.2C167.1,28.1,167.1,27.9,167.2,27.9z"/>
	<rect x="188.7" y="17" class="st0" width="5" height="3.5"/>
	<rect x="188.7" y="22.7" class="st0" width="5" height="22.2"/>
	<path class="st0" d="M199.8,23.4c-0.8,0.5-1.4,1.1-1.9,1.9c-0.5,0.8-0.7,1.7-0.7,2.6v11.6c0,0.9,0.2,1.8,0.7,2.6
		c0.5,0.8,1.1,1.4,1.9,1.9c0.8,0.5,1.7,0.7,2.6,0.7h12c1,0,1.9-0.2,2.7-0.7c0.8-0.5,1.4-1.1,1.9-1.9c0.5-0.8,0.7-1.7,0.7-2.6V28
		c0-1-0.2-1.9-0.7-2.7c-0.5-0.8-1.1-1.4-1.9-1.9c-0.8-0.5-1.7-0.7-2.7-0.7h-12C201.5,22.7,200.6,23,199.8,23.4z M214.2,27.7
		c0.1,0,0.2,0,0.3,0.1c0.1,0.1,0.1,0.2,0.1,0.3v11.2c0,0.1,0,0.2-0.1,0.3c-0.1,0.1-0.2,0.1-0.3,0.1h-11.6c-0.1,0-0.2,0-0.3-0.1
		c-0.1-0.1-0.1-0.2-0.1-0.3V28.2c0-0.1,0-0.2,0.1-0.3c0.1-0.1,0.2-0.1,0.3-0.1H214.2z"/>
	<polygon class="st0" points="206.5,17 205.6,20.5 210.7,20.5 211.5,17 	"/>
	<path class="st0" d="M246.3,44.9V28c0-1-0.2-1.8-0.7-2.6c-0.5-0.8-1.1-1.4-1.9-1.9c-0.8-0.5-1.7-0.7-2.7-0.7h-17.3v22.2h5V28.2
		c0-0.1,0-0.2,0.1-0.3c0.1-0.1,0.2-0.1,0.3-0.1h11.6c0.1,0,0.2,0,0.3,0.1c0.1,0.1,0.1,0.2,0.1,0.3v16.7H246.3z"/>
	<path class="st0" d="M232.2,49.3h-12.3c-1,0-1.9,0.2-2.7,0.7c-0.8,0.5-1.4,1.1-1.9,1.9c-0.5,0.8-0.7,1.7-0.7,2.6v11.6
		c0,1,0.2,1.8,0.7,2.6c0.5,0.8,1.1,1.4,1.9,1.9s1.7,0.7,2.7,0.7h17.3V42.1h-5V49.3z M232.2,66.1c0,0.1,0,0.2-0.1,0.3
		c-0.1,0.1-0.2,0.1-0.3,0.1h-11.6c-0.1,0-0.2,0-0.3-0.1c-0.1-0.1-0.1-0.2-0.1-0.3V54.8c0-0.1,0-0.2,0.1-0.3c0.1-0.1,0.2-0.1,0.3-0.1
		h11.6c0.1,0,0.2,0,0.3,0.1c0.1,0.1,0.1,0.2,0.1,0.3V66.1z"/>
	<path class="st0" d="M260.3,50c-0.8-0.5-1.7-0.7-2.7-0.7h-12c-0.9,0-1.8,0.2-2.6,0.7c-0.8,0.5-1.4,1.1-1.9,1.9
		c-0.5,0.8-0.7,1.7-0.7,2.6v11.6c0,0.9,0.2,1.8,0.7,2.6c0.5,0.8,1.1,1.4,1.9,1.9c0.8,0.5,1.7,0.7,2.6,0.7h17.3v-5h-17.1
		c-0.1,0-0.2,0-0.3-0.1c-0.1-0.1-0.1-0.2-0.1-0.3V63h17.5v-8.3c0-1-0.2-1.9-0.7-2.7C261.8,51.2,261.1,50.5,260.3,50z M257.9,58.4
		h-12.5v-3.6c0-0.1,0-0.2,0.1-0.3c0.1-0.1,0.2-0.1,0.3-0.1h11.6c0.1,0,0.2,0,0.3,0.1c0.1,0.1,0.1,0.2,0.1,0.3V58.4z"/>
	<path class="st0" d="M271.2,66.4c-0.1-0.1-0.1-0.2-0.1-0.3V12.4v-1.2v-0.6H271c-0.3-1.9-1.9-3.3-3.8-3.3H63.7v47.1h144.7v-5.1H68.8
		V33.7h17.1v-5.1H68.8V12.4H266v53.8c0,0.9,0.2,1.8,0.7,2.6c0.5,0.8,1.1,1.4,1.9,1.9s1.7,0.7,2.6,0.7h4.5v-5h-4.2
		C271.4,66.5,271.3,66.5,271.2,66.4z"/>
	<path class="st0" d="M303,50.1c-0.8-0.5-1.7-0.7-2.7-0.7h-12c-0.9,0-1.8,0.2-2.6,0.7c-0.8,0.5-1.4,1.1-1.9,1.9
		c-0.5,0.8-0.7,1.7-0.7,2.6v3.1c0,0.9,0.2,1.8,0.7,2.6c0.5,0.8,1.1,1.4,1.9,1.9c0.8,0.5,1.7,0.7,2.6,0.7h11.8c0.1,0,0.2,0,0.3,0.1
		c0.1,0.1,0.1,0.2,0.1,0.3v2.6c0,0.1,0,0.2-0.1,0.3c-0.1,0.1-0.2,0.1-0.3,0.1h-11.6c-0.1,0-0.2,0-0.3-0.1c-0.1-0.1-0.1-0.2-0.1-0.3
		v-0.7h-5v0.8c0,0.9,0.2,1.8,0.7,2.6c0.5,0.8,1.1,1.4,1.9,1.9c0.8,0.5,1.7,0.7,2.6,0.7h12c1,0,1.9-0.2,2.7-0.7
		c0.8-0.5,1.4-1.1,1.9-1.9c0.5-0.8,0.7-1.7,0.7-2.6v-3.1c0-1-0.2-1.8-0.7-2.6c-0.5-0.8-1.1-1.4-1.9-1.9c-0.8-0.5-1.7-0.7-2.7-0.7
		h-11.8c-0.1,0-0.2,0-0.3-0.1c-0.1-0.1-0.1-0.2-0.1-0.3v-2.6c0-0.1,0-0.2,0.1-0.3c0.1-0.1,0.2-0.1,0.3-0.1h11.6c0.1,0,0.2,0,0.3,0.1
		c0.1,0.1,0.1,0.2,0.1,0.3v0.7h5v-0.8c0-1-0.2-1.8-0.7-2.6C304.4,51.2,303.7,50.5,303,50.1z"/>
	<path class="st0" d="M328.6,50c-0.8-0.5-1.7-0.7-2.7-0.7h-12c-0.9,0-1.8,0.2-2.6,0.7c-0.8,0.5-1.4,1.1-1.9,1.9
		c-0.5,0.8-0.7,1.7-0.7,2.6v11.6c0,0.9,0.2,1.8,0.7,2.6c0.5,0.8,1.1,1.4,1.9,1.9c0.8,0.5,1.7,0.7,2.6,0.7h17.3v-5h-17.1
		c-0.1,0-0.2,0-0.3-0.1c-0.1-0.1-0.1-0.2-0.1-0.3V63h17.5v-8.3c0-1-0.2-1.9-0.7-2.7C330,51.2,329.4,50.5,328.6,50z M326.2,58.4
		h-12.5v-3.6c0-0.1,0-0.2,0.1-0.3c0.1-0.1,0.2-0.1,0.3-0.1h11.6c0.1,0,0.2,0,0.3,0.1c0.1,0.1,0.1,0.2,0.1,0.3V58.4z"/>
	<path class="st0" d="M340.2,49.3c-0.9,0-1.8,0.2-2.6,0.7c-0.8,0.5-1.4,1.1-1.9,1.9c-0.5,0.8-0.7,1.7-0.7,2.6v16.9h5V54.8
		c0-0.1,0-0.2,0.1-0.3c0.1-0.1,0.2-0.1,0.3-0.1h12.1v-5H340.2z"/>
</g>
<g>
	<path class="st0" d="M31.3,29.9c0,0.9-0.7,1.6-1.6,1.6c-0.9,0-1.6-0.7-1.6-1.6c0-0.9,0.7-1.6,1.6-1.6C30.6,28.3,31.3,29,31.3,29.9z
		"/>
	<path class="st0" d="M41.5,40c-1.9,0-3.5,1.4-3.7,3.3H19.4V16.5h23.8v12.9h-9.7c-0.2-1.8-1.8-3.3-3.7-3.3c-2.1,0-3.7,1.7-3.7,3.8
		s1.7,3.8,3.7,3.8c1.9,0,3.5-1.4,3.7-3.3h10.7V15.5H18.5v28.6h19.4c0.2,1.8,1.8,3.3,3.7,3.3c2.1,0,3.8-1.7,3.8-3.8
		C45.3,41.6,43.6,40,41.5,40z M29.7,32.6c-1.5,0-2.8-1.3-2.8-2.8s1.3-2.8,2.8-2.8c1.5,0,2.8,1.3,2.8,2.8S31.3,32.6,29.7,32.6z
		 M41.5,46.5c-1.5,0-2.8-1.3-2.8-2.8c0-1.5,1.3-2.8,2.8-2.8c1.5,0,2.8,1.3,2.8,2.8C44.3,45.2,43.1,46.5,41.5,46.5z M41.5,42.1
		c-0.9,0-1.6,0.7-1.6,1.6c0,0.9,0.7,1.6,1.6,1.6c0.9,0,1.6-0.7,1.6-1.6C43.1,42.8,42.4,42.1,41.5,42.1z"/>
	<path class="st0" d="M52.3,7.1H8.5c-1.1,0-2,0.9-2,2v43.4c0,1.1,0.9,2,2,2h43.9c1.1,0,2-0.9,2-2V9C54.3,8,53.4,7.1,52.3,7.1z
		 M46.5,32.7H33.4c-0.8,1.1-2.2,1.8-3.6,1.8c-2.6,0-4.6-2.1-4.6-4.6c0-2.6,2.1-4.6,4.6-4.6c1.5,0,2.8,0.7,3.6,1.8h7.4v-8.2h-19v22
		h16.1c0.8-1.1,2.2-1.8,3.7-1.8c2.5,0,4.6,2.1,4.6,4.6c0,2.6-2.1,4.6-4.6,4.6c-1.5,0-2.8-0.7-3.7-1.8H16.1V13.2h30.4V32.7z"/>
	<g>
		<path class="st0" d="M41.5,40c-1.9,0-3.5,1.4-3.7,3.3H19.4V16.5h23.8v12.9h-9.7c-0.2-1.8-1.8-3.3-3.7-3.3c-2.1,0-3.7,1.7-3.7,3.8
			s1.7,3.8,3.7,3.8c1.9,0,3.5-1.4,3.7-3.3h10.7V15.5H18.5v28.6h19.4c0.2,1.8,1.8,3.3,3.7,3.3c2.1,0,3.8-1.7,3.8-3.8
			C45.3,41.6,43.6,40,41.5,40z M29.7,32.6c-1.5,0-2.8-1.3-2.8-2.8s1.3-2.8,2.8-2.8c1.5,0,2.8,1.3,2.8,2.8S31.3,32.6,29.7,32.6z
			 M41.5,46.5c-1.5,0-2.8-1.3-2.8-2.8c0-1.5,1.3-2.8,2.8-2.8c1.5,0,2.8,1.3,2.8,2.8C44.3,45.2,43.1,46.5,41.5,46.5z"/>
		<path class="st0" d="M31.3,29.9c0,0.9-0.7,1.6-1.6,1.6c-0.9,0-1.6-0.7-1.6-1.6c0-0.9,0.7-1.6,1.6-1.6C30.6,28.3,31.3,29,31.3,29.9
			z"/>
		<path class="st0" d="M43.1,43.7c0,0.9-0.7,1.6-1.6,1.6c-0.9,0-1.6-0.7-1.6-1.6c0-0.9,0.7-1.6,1.6-1.6
			C42.4,42.1,43.1,42.8,43.1,43.7z"/>
	</g>
</g>
</svg>
