<svg width="44" height="44" viewBox="0 0 44 44" fill="none" xmlns="http://www.w3.org/2000/svg">
<path d="M43.3125 22C43.3125 33.7706 33.7706 43.3125 22 43.3125C10.2294 43.3125 0.6875 33.7706 0.6875 22C0.6875 10.2294 10.2294 0.6875 22 0.6875C33.7706 0.6875 43.3125 10.2294 43.3125 22ZM19.5348 33.2848L35.3473 17.4723C35.8842 16.9354 35.8842 16.0647 35.3473 15.5278L33.4028 13.5833C32.8659 13.0463 31.9952 13.0463 31.4582 13.5833L18.5625 26.4789L12.5418 20.4582C12.0049 19.9213 11.1342 19.9213 10.5972 20.4582L8.6527 22.4027C8.11577 22.9396 8.11577 23.8103 8.6527 24.3472L17.5902 33.2847C18.1272 33.8217 18.9978 33.8217 19.5348 33.2848Z" fill="white"/>
</svg>
